<svg xmlns="http://www.w3.org/2000/svg" width="20" height="20" viewBox="0 0 20 20" fill="none">
<path d="M10.0001 13.3334C9.8904 13.334 9.78168 13.313 9.68015 13.2715C9.57862 13.2301 9.48627 13.169 9.40841 13.0917L4.40841 8.09174C4.25149 7.93482 4.16333 7.72199 4.16333 7.50007C4.16333 7.27816 4.25149 7.06533 4.40841 6.90841C4.56533 6.75149 4.77816 6.66333 5.00007 6.66333C5.22199 6.66333 5.43482 6.75149 5.59174 6.90841L10.0001 11.3251L14.4084 6.91674C14.5678 6.78022 14.7729 6.70888 14.9826 6.71698C15.1923 6.72508 15.3913 6.81203 15.5397 6.96044C15.6881 7.10885 15.7751 7.3078 15.7832 7.51753C15.7913 7.72726 15.7199 7.93232 15.5834 8.09174L10.5834 13.0917C10.4282 13.2457 10.2187 13.3325 10.0001 13.3334Z" fill="#FDBA12"/>
</svg>