<svg xmlns="http://www.w3.org/2000/svg" width="20" height="20" viewBox="0 0 20 20" fill="none">
<path d="M18.9801 5.45224C18.9801 5.43321 18.9801 5.43321 18.9801 5.41419C18.9603 5.37613 18.9603 5.33808 18.9404 5.30003V5.281C18.9205 5.24295 18.8808 5.20489 18.8609 5.18587L18.8411 5.16684C18.8212 5.14781 18.7815 5.12879 18.7616 5.10976L18.7417 5.09073H18.7219L18.702 5.07171L10.2583 1.05708C10.0993 0.980973 9.90066 0.980973 9.72185 1.05708L6.8808 2.40797L15.3642 6.57481L15.3841 6.59384C15.404 6.59384 15.404 6.61287 15.4238 6.61287C15.4437 6.63189 15.4437 6.65092 15.4636 6.66995C15.4636 6.68897 15.4636 6.68897 15.4636 6.708V6.72703V11.1412C15.4636 11.2173 15.4238 11.2744 15.3642 11.3125L13.6556 12.1687C13.5563 12.2257 13.4371 12.1877 13.3775 12.0925C13.3576 12.0735 13.3576 12.0355 13.3576 11.9974V7.67836L4.77483 3.43541L4.75497 3.41639L1.31788 5.05268L1.29801 5.07171H1.27815L1.25828 5.09073C1.23841 5.10976 1.19868 5.12879 1.17881 5.14781L1.15894 5.16684C1.11921 5.20489 1.09934 5.24295 1.0596 5.281V5.30003C1.03974 5.33808 1.01987 5.37613 1.01987 5.41419C1.01987 5.43321 1.01987 5.43321 1.01987 5.45224C1.01987 5.49029 1 5.50932 1 5.54737V5.5664V14.4328C1 14.6421 1.11921 14.8514 1.33775 14.9465L9.70199 18.9421C9.82119 18.9992 9.96027 19.0183 10.0993 18.9802L10.1391 18.9612C10.1788 18.9612 10.1987 18.9421 10.2384 18.9231L18.6623 14.9275C18.8609 14.8324 19 14.6421 19 14.4138V5.5664V5.54737C18.9801 5.50932 18.9801 5.49029 18.9801 5.45224Z" fill="#181818"/>
</svg>