<svg width="63" height="62" viewBox="0 0 63 62" fill="none" xmlns="http://www.w3.org/2000/svg">
<rect x="3.33337" y="3" width="56" height="56" rx="28" fill="#2196F3"/>
<rect x="3.33337" y="3" width="56" height="56" rx="28" stroke="#E0EEFA" stroke-width="6"/>
<path d="M38.9127 22.1471H36.3313V21.7647C36.3313 21.5619 36.2541 21.3674 36.1165 21.224C35.979 21.0806 35.7925 21 35.598 21C35.4035 21 35.217 21.0806 35.0795 21.224C34.9419 21.3674 34.8647 21.5619 34.8647 21.7647V22.1471H27.1353V21.7647C27.1353 21.5619 27.0581 21.3674 26.9205 21.224C26.783 21.0806 26.5965 21 26.402 21C26.2075 21 26.021 21.0806 25.8835 21.224C25.7459 21.3674 25.6687 21.5619 25.6687 21.7647V22.1471H23.0873C22.2691 22.1491 21.485 22.489 20.9064 23.0924C20.3278 23.6957 20.0019 24.5134 20 25.3667V38.7804C20.0019 39.6337 20.3278 40.4514 20.9064 41.0548C21.485 41.6581 22.2691 41.998 23.0873 42H38.9127C39.7309 41.998 40.515 41.6581 41.0936 41.0548C41.6722 40.4514 41.9981 39.6337 42 38.7804V25.3667C41.9981 24.5134 41.6722 23.6957 41.0936 23.0924C40.515 22.489 39.7309 22.1491 38.9127 22.1471ZM23.0873 23.6766H25.6687V24.059C25.6687 24.2618 25.7459 24.4563 25.8835 24.5998C26.021 24.7432 26.2075 24.8237 26.402 24.8237C26.5965 24.8237 26.783 24.7432 26.9205 24.5998C27.0581 24.4563 27.1353 24.2618 27.1353 24.059V23.6766H34.8647V24.059C34.8647 24.2618 34.9419 24.4563 35.0795 24.5998C35.217 24.7432 35.4035 24.8237 35.598 24.8237C35.7925 24.8237 35.979 24.7432 36.1165 24.5998C36.2541 24.4563 36.3313 24.2618 36.3313 24.059V23.6766H38.9127C39.3425 23.6766 39.7547 23.8547 40.0587 24.1716C40.3626 24.4886 40.5333 24.9185 40.5333 25.3667V27.1792H21.4667V25.3667C21.4667 24.9185 21.6374 24.4886 21.9413 24.1716C22.2453 23.8547 22.6575 23.6766 23.0873 23.6766Z" fill="white"/>
</svg>
