<svg width="32" height="32" viewBox="0 0 32 32" fill="none" xmlns="http://www.w3.org/2000/svg">
<g id="Icon">
<path id="Vector" fill-rule="evenodd" clip-rule="evenodd" d="M24.8869 9.26781C25.4819 8.67272 25.4819 7.7079 24.8869 7.11282C24.2918 6.51773 23.3269 6.51773 22.7319 7.11282L15.9998 13.8448L9.26781 7.11282C8.67272 6.51773 7.7079 6.51773 7.11282 7.11282C6.51773 7.7079 6.51773 8.67272 7.11282 9.26781L13.8448 15.9998L7.11282 22.7319C6.51773 23.3269 6.51773 24.2918 7.11282 24.8869C7.7079 25.4819 8.67272 25.4819 9.26781 24.8869L15.9998 18.1548L22.7319 24.8869C23.3269 25.4819 24.2918 25.4819 24.8869 24.8869C25.4819 24.2918 25.4819 23.3269 24.8869 22.7319L18.1548 15.9998L24.8869 9.26781Z" fill="#2C313A"/>
</g>
</svg>
