<svg width="62" height="62" viewBox="0 0 62 62" fill="none" xmlns="http://www.w3.org/2000/svg">
<rect x="3" y="3" width="56" height="56" rx="28" fill="#F26D0F"/>
<rect x="3" y="3" width="56" height="56" rx="28" stroke="#F9DDC9" stroke-width="6"/>
<path d="M40.6 19H21.4C20.0779 19 19 20.0745 19 21.4V40.6C19 41.9221 20.0745 43 21.4 43H40.6C41.9221 43 43 41.9255 43 40.6V21.4C43 20.0779 41.9255 19 40.6 19ZM40.6 40.6H21.4V21.4H40.6V40.6Z" fill="white"/>
<path d="M28.6 21.4H26.2V40.6H28.6V21.4Z" fill="white"/>
<path d="M35.8 21.4H33.4V40.6H35.8V21.4Z" fill="white"/>
<path d="M44.4999 36.4989C44.4995 33.3909 42.7259 30.7032 40.142 29.3869C39.0485 28.8172 37.8149 28.5 36.5 28.5C32.0844 28.5 28.5 32.0844 28.5 36.5C28.5 40.9156 32.0844 44.5 36.5 44.5L36.501 44.5C40.8566 44.4907 44.518 40.9482 44.4999 36.4989ZM44.4999 36.4989C44.4999 36.4993 44.4999 36.4996 44.4999 36.5H43.9999L44.4999 36.4979C44.4999 36.4982 44.4999 36.4986 44.4999 36.4989ZM36.5 39.7281C36.2248 39.7281 36.0023 39.5057 36.0023 39.2305C36.0023 38.9553 36.2248 38.7328 36.5 38.7328C36.7752 38.7328 36.9976 38.9553 36.9976 39.2305C36.9976 39.5057 36.7752 39.7281 36.5 39.7281ZM36.9976 35.9749C36.9976 36.2501 36.7752 36.4726 36.5 36.4726C36.2248 36.4726 36.0023 36.2501 36.0023 35.9749V33.2882C36.0023 33.013 36.2248 32.7905 36.5 32.7905C36.7752 32.7905 36.9976 33.013 36.9976 33.2882V35.9749Z" fill="white" stroke="#F26D0F"/>
</svg>
