<svg xmlns="http://www.w3.org/2000/svg" width="28" height="28" viewBox="0 0 28 28" fill="none">
<path d="M23.2719 16.3294C23.0788 16.3294 22.8937 16.4038 22.7571 16.5362C22.6206 16.6685 22.5439 16.8481 22.5439 17.0353V19.4459C22.5439 20.0141 22.3111 20.559 21.8967 20.9608C21.4823 21.3625 20.9202 21.5882 20.3342 21.5882H7.66582C7.07977 21.5882 6.51773 21.3625 6.10334 20.9608C5.68894 20.559 5.45613 20.0141 5.45613 19.4459V17.0353C5.45613 16.8481 5.37943 16.6685 5.24289 16.5362C5.10635 16.4038 4.92116 16.3294 4.72807 16.3294C4.53497 16.3294 4.34978 16.4038 4.21325 16.5362C4.07671 16.6685 4 16.8481 4 17.0353V19.4459C4.00096 20.3882 4.38749 21.2917 5.07476 21.958C5.76202 22.6243 6.69388 22.9991 7.66582 23H20.3342C21.3061 22.9991 22.238 22.6243 22.9252 21.958C23.6125 21.2917 23.999 20.3882 24 19.4459V17.0353C24 16.8481 23.9233 16.6685 23.7868 16.5362C23.6502 16.4038 23.465 16.3294 23.2719 16.3294Z" fill="#FDBA12"/>
<path d="M13.4831 18.3906C13.5508 18.4568 13.6313 18.5093 13.72 18.5451C13.8087 18.5809 13.9039 18.5994 14 18.5994C14.0961 18.5994 14.1913 18.5809 14.28 18.5451C14.3687 18.5093 14.4492 18.4568 14.5169 18.3906L18.6596 14.3741C18.7752 14.2393 18.8349 14.0675 18.8271 13.8924C18.8192 13.7172 18.7444 13.5511 18.6172 13.4265C18.49 13.3018 18.3196 13.2276 18.139 13.2181C17.9584 13.2086 17.7806 13.2647 17.6403 13.3753L14.7281 16.1988V5.70588C14.7281 5.51867 14.6514 5.33913 14.5148 5.20675C14.3783 5.07437 14.1931 5 14 5C13.8069 5 13.6217 5.07437 13.4852 5.20675C13.3486 5.33913 13.2719 5.51867 13.2719 5.70588V16.1882L10.3597 13.3647C10.223 13.2323 10.0378 13.1578 9.84456 13.1578C9.65135 13.1578 9.46606 13.2323 9.32945 13.3647C9.19283 13.4972 9.11609 13.6768 9.11609 13.8641C9.11609 14.0514 9.19283 14.2311 9.32945 14.3635L13.4831 18.3906Z" fill="#FDBA12"/>
</svg>