<svg width="18" height="18" viewBox="0 0 18 18" fill="none" xmlns="http://www.w3.org/2000/svg">
<rect x="0.5" y="0.5" width="17" height="17" rx="3.5" stroke="#D79900"/>
<path d="M13.6658 7.17396L12.5354 8.30449L9.69605 5.46478L10.8264 4.33425C10.9136 4.23628 11.0192 4.15647 11.1372 4.09939C11.2552 4.04231 11.3834 4.00908 11.5142 4.00162C11.6451 3.99415 11.7762 4.01259 11.9 4.05588C12.0237 4.09917 12.1377 4.16645 12.2354 4.25388L13.7462 5.76482C13.8336 5.86254 13.9008 5.97654 13.9441 6.10031C13.9874 6.22408 14.0058 6.35517 13.9984 6.48607C13.9909 6.61698 13.9577 6.74512 13.9006 6.86316C13.8436 6.9812 13.7638 7.08682 13.6658 7.17396ZM9.69605 6.60066L9.12818 6.03272L4.55843 10.6031C4.37132 10.7839 4.25375 11.0247 4.22628 11.2835L4.00127 13.5606C3.99686 13.6163 4.00395 13.6723 4.02209 13.7251C4.04022 13.7779 4.06903 13.8264 4.10671 13.8676C4.1444 13.9088 4.19015 13.9419 4.24113 13.9646C4.29212 13.9874 4.34724 13.9994 4.40307 14H4.44057L6.71741 13.775C6.97614 13.7475 7.21698 13.6299 7.39778 13.4428L11.9675 8.87244L11.3997 8.30449L9.69605 6.60066Z" fill="#D79900"/>
</svg>
