<svg width="20" height="20" viewBox="0 0 20 20" fill="none" xmlns="http://www.w3.org/2000/svg">
<g id="engine 1">
<path id="Vector" d="M17.3334 7.19999H16.2807C15.9854 7.19999 15.7254 7.40438 15.6414 7.7012L14.9934 9.99997H14.9214L14.6334 9.08158C14.5427 8.79388 14.288 8.59999 14 8.59999H12.6667V7.89997C12.6667 7.51358 12.3687 7.19999 12 7.19999H10.6667V6.5H11.3333C11.702 6.5 12 6.18641 12 5.80001V3.69999C12 3.31359 11.702 3 11.3333 3H6.00001C5.63135 3 5.33335 3.31359 5.33335 3.69999V5.79998C5.33335 6.18638 5.63135 6.49997 6.00001 6.49997H6.66667V7.19995H4.66666C4.298 7.19999 4 7.51358 4 7.89997V10.7H3.33335V9.99997C3.33335 9.61357 3.03535 9.29998 2.66669 9.29998C2.298 9.29998 2 9.61357 2 9.99997V12.7999C2 13.1863 2.298 13.4999 2.66666 13.4999C3.03531 13.4999 3.33332 13.1863 3.33332 12.7999V12.1H4V13.5C4 13.6036 4.022 13.7058 4.06466 13.7996L5.01201 15.8996C5.12201 16.1439 5.35601 16.3 5.61401 16.3H13.6494C13.8847 16.3 14.1027 16.1691 14.2227 15.957L14.8194 14.9H15.038L15.66 16.5569C15.7614 16.8243 16.0074 17 16.2807 17H17.3333C17.702 17 18 16.6864 18 16.3V7.89997C18 7.51358 17.702 7.19999 17.3334 7.19999Z" fill="#181818"/>
</g>
</svg>
