<svg width="63" height="62" viewBox="0 0 63 62" fill="none" xmlns="http://www.w3.org/2000/svg">
<rect x="3.66666" y="3" width="56" height="56" rx="28" fill="#F26D0F"/>
<rect x="3.66666" y="3" width="56" height="56" rx="28" stroke="#FAEADF" stroke-width="6"/>
<path d="M32 25.9775C36.5422 25.9775 41.1408 24.7696 41.1408 22.4618C41.1408 17.8461 22.8592 17.8461 22.8592 22.4618C22.8592 24.7696 27.4578 25.9775 32 25.9775Z" fill="white"/>
<path d="M41.1126 35.5889C41.1222 35.5845 41.1312 35.5794 41.1408 35.575V31.4026C35.8036 33.563 28.5766 33.7256 22.8592 31.4099V35.5607C22.8688 35.5649 22.8778 35.5706 22.8874 35.5748C28.3635 38.013 35.8318 37.9012 41.1126 35.5889Z" fill="white"/>
<path d="M32 43C36.5422 43 41.1408 41.7922 41.1408 39.4843V37.0616C35.289 39.4258 28.1735 39.2328 22.8592 37.0819V39.4843C22.8592 41.7922 27.4578 43 32 43Z" fill="white"/>
<path d="M41.1126 29.8748C41.1221 29.871 41.1312 29.8659 41.1408 29.8622V25.1596C39.1521 26.7587 35.3813 27.3838 32 27.3838C28.6187 27.3838 24.8479 26.7587 22.8592 25.1596V29.8888C22.8688 29.893 22.8778 29.8987 22.8874 29.9028C28.223 32.2922 35.8119 32.2878 41.1126 29.8748Z" fill="white"/>
<rect x="36" y="38" width="3" height="2" fill="#F26D0F"/>
<path d="M37.2391 43.65L37.2405 43.65C41.0922 43.6418 44.3324 40.5098 44.3166 36.5711C44.3161 33.8216 42.7469 31.4442 40.4618 30.2797C39.4938 29.7755 38.4019 29.495 37.2391 29.495C33.3326 29.495 30.1616 32.666 30.1616 36.5725C30.1616 40.479 33.3326 43.65 37.2391 43.65ZM37.2391 39.1175C37.1256 39.1175 37.0341 39.026 37.0341 38.9125C37.0341 38.799 37.1256 38.7075 37.2391 38.7075C37.3526 38.7075 37.4441 38.799 37.4441 38.9125C37.4441 39.026 37.3526 39.1175 37.2391 39.1175ZM37.4441 36.1225C37.4441 36.236 37.3526 36.3275 37.2391 36.3275C37.1256 36.3275 37.0341 36.236 37.0341 36.1225V33.82C37.0341 33.7065 37.1256 33.615 37.2391 33.615C37.3526 33.615 37.4441 33.7065 37.4441 33.82V36.1225Z" fill="white" stroke="#F26D0F" stroke-width="1.3"/>
</svg>
