<svg xmlns="http://www.w3.org/2000/svg" width="16" height="16" viewBox="0 0 16 16" fill="none">
  <path d="M8 4C5.70727 4 3.62811 5.40288 2.09389 7.68154C1.9687 7.86822 1.9687 8.12903 2.09389 8.31572C3.62811 10.5971 5.70727 12 8 12C10.2927 12 12.3719 10.5971 13.9061 8.31846C14.0313 8.13178 14.0313 7.87097 13.9061 7.68428C12.3719 5.40288 10.2927 4 8 4ZM8.16447 10.8167C6.64253 10.9238 5.3857 9.52093 5.48144 7.81606C5.55999 6.41043 6.57871 5.27111 7.83553 5.18325C9.35747 5.07618 10.6143 6.47907 10.5186 8.18394C10.4376 9.58682 9.41884 10.7261 8.16447 10.8167ZM8.08837 9.51544C7.26849 9.5731 6.59098 8.81812 6.64498 7.90117C6.68671 7.14345 7.23658 6.53123 7.91408 6.48181C8.73397 6.42416 9.41148 7.17914 9.35747 8.09609C9.31329 8.85656 8.76342 9.46877 8.08837 9.51544Z" fill="#79808F"/>
</svg>