<svg xmlns="http://www.w3.org/2000/svg" width="16" height="16" viewBox="0 0 16 16" fill="none">
<path d="M4.16231 3.63784L4.16067 3.63587C4.11912 3.59254 4.06986 3.55824 4.0157 3.53493C3.96154 3.51162 3.90354 3.49975 3.84502 3.5C3.78649 3.50026 3.72859 3.51262 3.67461 3.5364C3.62064 3.56018 3.57164 3.5949 3.53043 3.63858C3.48922 3.68226 3.45659 3.73405 3.43441 3.79098C3.41224 3.84792 3.40095 3.90889 3.40119 3.97041C3.40167 4.09467 3.44909 4.21363 3.53301 4.30113L4.20497 5.00754C3.39006 5.59426 2.68862 6.33842 2.13798 7.20043C2.04806 7.34 2 7.50469 2 7.67326C2 7.84182 2.04806 8.00652 2.13798 8.14609C3.54355 10.3331 5.7718 11.6143 8.00004 11.5983C8.7218 11.601 9.43876 11.4747 10.1202 11.2248L11.208 12.3683C11.2918 12.4535 11.4041 12.5008 11.5207 12.5C11.6373 12.4992 11.749 12.4503 11.8317 12.3638C11.9144 12.2774 11.9615 12.1602 11.963 12.0377C11.9644 11.9151 11.92 11.7968 11.8394 11.7082L4.16231 3.63784ZM8.00004 10.3267C7.57787 10.3265 7.16248 10.2151 6.79182 10.0027C6.42116 9.79025 6.10705 9.48355 5.8782 9.11061C5.64935 8.73767 5.51306 8.31039 5.48178 7.86781C5.4505 7.42522 5.52523 6.98145 5.69914 6.57706L6.4011 7.315C6.34456 7.5951 6.35549 7.88561 6.43289 8.16014C6.51029 8.43467 6.65171 8.68452 6.84431 8.88699C7.03691 9.08946 7.27458 9.23813 7.53572 9.3195C7.79687 9.40087 8.07321 9.41236 8.33966 9.35292L9.04162 10.0909C8.71445 10.2468 8.35927 10.3272 8.00004 10.3267Z" fill="#79808F"/>
<path d="M13.8621 7.1992C12.4565 5.01099 10.2283 3.72974 8.00004 3.74576C7.27828 3.74301 6.56132 3.86932 5.87985 4.11929L6.95799 5.2527C7.42583 5.03013 7.94708 4.96273 8.45228 5.05949C8.95748 5.15625 9.42264 5.41257 9.78575 5.7943C10.1489 6.17602 10.3927 6.66501 10.4847 7.19611C10.5768 7.7272 10.5127 8.27518 10.3009 8.767L11.7949 10.3375C12.6099 9.75087 13.3115 9.0067 13.8621 8.14461C13.952 8.00507 14 7.84042 14 7.6719C14 7.50339 13.952 7.33874 13.8621 7.1992Z" fill="#79808F"/>
<path d="M8.00004 5.95368C7.8859 5.9537 7.77208 5.96625 7.66042 5.99114L9.59897 8.0288C9.64952 7.77844 9.64623 7.51938 9.58935 7.27053C9.53246 7.02167 9.42342 6.78932 9.27018 6.59045C9.11694 6.39157 8.92338 6.23119 8.70363 6.12102C8.48388 6.01086 8.2435 5.95368 8.00004 5.95368Z" fill="#79808F"/>
</svg>