<svg width="62" height="62" viewBox="0 0 62 62" fill="none" xmlns="http://www.w3.org/2000/svg">
<rect x="3" y="3" width="56" height="56" rx="28" fill="#E52A34"/>
<rect x="3" y="3" width="56" height="56" rx="28" stroke="#F8E1E2" stroke-width="6"/>
<path fill-rule="evenodd" clip-rule="evenodd" d="M39.5725 20.7175V29.005C38.635 28.6375 37.63 28.4275 36.5725 28.4275C32.08 28.4275 28.4275 32.08 28.4275 36.5725C28.4275 39.19 29.665 41.5075 31.57 43H20.7175C19.765 43 19 42.2275 19 41.2825V23.995C19 23.5375 19.18 23.1025 19.5025 22.78C20.3275 21.955 21.955 20.3275 22.78 19.5025C23.1025 19.18 23.545 19 23.995 19H37.855C38.8 19 39.5725 19.765 39.5725 20.7175Z" fill="white"/>
<path fill-rule="evenodd" clip-rule="evenodd" d="M39.4974 30.8575C38.62 30.4 37.63 30.145 36.5725 30.145C33.025 30.145 30.145 33.025 30.145 36.5725C30.145 40.12 33.025 43 36.5725 43C40.0749 42.9925 43.0149 40.1425 42.9999 36.5725C42.9999 34.075 41.5749 31.915 39.4974 30.8575ZM36.5725 39.7675C36.1 39.7675 35.7175 39.385 35.7175 38.9125C35.7175 38.44 36.1 38.0575 36.5725 38.0575C37.045 38.0575 37.4275 38.44 37.4275 38.9125C37.4275 39.385 37.045 39.7675 36.5725 39.7675ZM37.4275 36.1225C37.4275 36.595 37.045 36.9775 36.5725 36.9775C36.1 36.9775 35.7175 36.595 35.7175 36.1225V33.82C35.7175 33.3475 36.1 32.965 36.5725 32.965C37.045 32.965 37.4275 33.3475 37.4275 33.82V36.1225Z" fill="white"/>
</svg>
