<svg xmlns="http://www.w3.org/2000/svg" width="24" height="24" viewBox="0 0 24 24" fill="none">
<path fill-rule="evenodd" clip-rule="evenodd" d="M20 8.74667C20 7.99897 19.7017 7.28205 19.172 6.75282C18.1815 5.76615 16.2231 3.81333 15.2336 2.82564C14.7029 2.29744 13.9839 2 13.2341 2C11.8918 2 9.20206 2 6.88571 2C5.58971 2 4.3472 2.51282 3.43074 3.42667C2.51429 4.34051 2 5.57949 2 6.8718V17.1282C2 19.8185 4.18777 22 6.88571 22H15.1143C17.8122 22 20 19.8185 20 17.1282C20 14.1651 20 10.4041 20 8.74667ZM13.3143 3.54051C13.2875 3.53949 13.2608 3.53846 13.2341 3.53846C11.8918 3.53846 9.20206 3.53846 6.88571 3.53846C5.99909 3.53846 5.14846 3.88923 4.52206 4.51487C3.89463 5.13949 3.54286 5.98769 3.54286 6.8718V17.1282C3.54286 18.9692 5.03943 20.4615 6.88571 20.4615H15.1143C16.9606 20.4615 18.4571 18.9692 18.4571 17.1282C18.4571 14.1651 18.4571 10.4041 18.4571 8.74667C18.4571 8.72 18.4561 8.69333 18.4551 8.66667H16.1429C15.393 8.66667 14.673 8.36923 14.1423 7.84103C13.6126 7.3118 13.3143 6.59385 13.3143 5.84615V3.54051ZM17.3658 7.12821L14.8571 4.62667V5.84615C14.8571 6.18667 14.9929 6.51179 15.2336 6.75282C15.4753 6.99282 15.8014 7.12821 16.1429 7.12821H17.3658Z" fill="#E5A500"/>
<path fill-rule="evenodd" clip-rule="evenodd" d="M11.0185 9.17949C11.0895 9.18154 11.1584 9.19282 11.2232 9.21231L11.2253 9.21333C11.3425 9.24821 11.4526 9.31282 11.5451 9.40513L13.6023 11.4564C13.9037 11.7559 13.9037 12.2441 13.6023 12.5436C13.3019 12.8441 12.8123 12.8441 12.512 12.5436L11.7714 11.8062V15.0769C11.7714 15.5015 11.4258 15.8462 11 15.8462C10.5742 15.8462 10.2286 15.5015 10.2286 15.0769V11.8062L9.488 12.5436C9.18766 12.8441 8.69806 12.8441 8.39772 12.5436C8.09634 12.2441 8.09634 11.7559 8.39772 11.4564L10.4549 9.40513C10.5474 9.31282 10.6575 9.24821 10.7747 9.21333L10.7768 9.21231C10.8416 9.19282 10.9105 9.18154 10.9815 9.17949H11.0185Z" fill="#E5A500"/>
</svg>