<svg width="62" height="62" viewBox="0 0 62 62" fill="none" xmlns="http://www.w3.org/2000/svg">
<rect x="3" y="3" width="56" height="56" rx="28" fill="#F26D0F"/>
<rect x="3" y="3" width="56" height="56" rx="28" stroke="#F9DDC9" stroke-width="6"/>
<path d="M33.25 19H21.75C20.23 19 19 20.23 19 21.75V37.25C19 38.77 20.23 40 21.75 40H28.34C27.8 38.86 27.5 37.59 27.5 36.25C27.5 35.1 27.72 34 28.13 32.99C28.09 33 28.05 33 28 33H23C22.45 33 22 32.55 22 32C22 31.45 22.45 31 23 31H28C28.38 31 28.72 31.22 28.88 31.54C29.53 30.53 30.37 29.67 31.36 29H23C22.45 29 22 28.55 22 28C22 27.45 22.45 27 23 27H32C32.55 27 33 27.45 33 28C33 28.05 33 28.09 32.99 28.13C33.92 27.75 34.94 27.53 36 27.51V21.75C36 20.23 34.77 19 33.25 19ZM27 25H23C22.45 25 22 24.55 22 24C22 23.45 22.45 23 23 23H27C27.55 23 28 23.45 28 24C28 24.55 27.55 25 27 25Z" fill="white"/>
<path d="M31.2919 31.2919C28.617 33.9667 28.617 38.319 31.2919 40.9938C33.9667 43.6687 38.319 43.6687 40.9938 40.9938C43.6687 38.319 43.6687 33.9667 40.9938 31.2919C38.319 28.617 33.9667 28.617 31.2919 31.2919ZM38.8379 34.8852L37.5802 36.1429L38.8379 37.4005C39.2346 37.7972 39.2346 38.4411 38.8379 38.8379C38.4411 39.2346 37.7972 39.2346 37.4005 38.8379L36.1429 37.5802L34.8852 38.8379C34.4885 39.2346 33.8446 39.2346 33.4479 38.8379C33.0512 38.4411 33.0512 37.7972 33.4479 37.4005L34.7055 36.1429L33.4479 34.8852C33.0512 34.4885 33.0512 33.8446 33.4479 33.4479C33.8446 33.0512 34.4885 33.0512 34.8852 33.4479L36.1429 34.7055L37.4005 33.4479C37.7972 33.0512 38.4411 33.0512 38.8379 33.4479C39.2346 33.8446 39.2346 34.4885 38.8379 34.8852Z" fill="white"/>
</svg>
