<svg xmlns="http://www.w3.org/2000/svg" width="24" height="24" viewBox="0 0 24 24" fill="none">
<path d="M22.75 17.84V8.88001C22.7499 8.78203 22.7303 8.68504 22.6925 8.59466C22.6546 8.50428 22.5992 8.42231 22.5294 8.35349C22.4597 8.28467 22.377 8.23036 22.2861 8.19372C22.1952 8.15708 22.098 8.13882 22 8.14001H13.21C12.9702 8.13966 12.7354 8.07076 12.5334 7.94142C12.3315 7.81209 12.1707 7.62771 12.07 7.41001L11.62 6.42001L11.01 5.10001C10.9805 5.03795 10.9471 4.97783 10.91 4.92001C10.675 4.48904 10.3279 4.12957 9.90549 3.87961C9.48302 3.62966 9.00087 3.4985 8.51 3.50001H4C3.63879 3.49975 3.28107 3.5707 2.94731 3.70881C2.61355 3.84692 2.31028 4.04947 2.05487 4.30488C1.79946 4.5603 1.5969 4.86356 1.4588 5.19732C1.32069 5.53109 1.24974 5.8888 1.25 6.25001V17.84C1.24974 18.2012 1.32069 18.5589 1.4588 18.8927C1.5969 19.2265 1.79946 19.5297 2.05487 19.7851C2.31028 20.0406 2.61355 20.2431 2.94731 20.3812C3.28107 20.5193 3.63879 20.5903 4 20.59H20C20.3612 20.5903 20.7189 20.5193 21.0527 20.3812C21.3865 20.2431 21.6897 20.0406 21.9451 19.7851C22.2005 19.5297 22.4031 19.2265 22.5412 18.8927C22.6793 18.5589 22.7503 18.2012 22.75 17.84Z" fill="#3B9D3F"/>
<path d="M12.98 6.99998C13.002 7.04202 13.035 7.07726 13.0756 7.10193C13.1161 7.1266 13.1626 7.13975 13.21 7.13998H22C22.248 7.13745 22.4936 7.18863 22.72 7.28998C22.6284 6.63345 22.3027 6.0321 21.8029 5.59662C21.3032 5.16115 20.6629 4.92086 20 4.91998H12.03L12.53 5.99998L12.98 6.99998Z" fill="#3B9D3F"/>
</svg>