<svg xmlns="http://www.w3.org/2000/svg" width="20" height="20" viewBox="0 0 20 20" fill="none">
<g clip-path="url(#clip0_1099_7672)">
<path d="M19.375 14.5833H13.75V11.0417V3.125C13.75 2.78 13.47 2.5 13.125 2.5C12.78 2.5 12.5 2.78 12.5 3.125V10.4167H11.6433L9.6825 4.8625C9.36 3.9475 8.49167 3.33333 7.52167 3.33333H4.79167C4.44667 3.33333 4.16667 3.61333 4.16667 3.95833V8.33333H2.29167C1.0275 8.33333 0 9.36083 0 10.625V14.375C0 15.1792 0.654167 15.8333 1.45833 15.8333H1.70917C1.9025 16.7833 2.74417 17.5 3.75 17.5C4.75583 17.5 5.5975 16.7833 5.79083 15.8333H7.54167C7.735 16.7833 8.57667 17.5 9.5825 17.5C10.5883 17.5 11.43 16.7833 11.6233 15.8333H13.1242H19.3742C19.7192 15.8333 19.9992 15.5533 19.9992 15.2083C19.9992 14.8633 19.72 14.5833 19.375 14.5833ZM5.41667 4.58333H7.52167C7.9625 4.58333 8.3575 4.8625 8.50417 5.27833L10.3175 10.4167H6.45833C5.88417 10.4167 5.41667 9.94917 5.41667 9.375V8.95833V4.58333ZM3.75 16.25C3.29 16.25 2.91667 15.8758 2.91667 15.4167C2.91667 14.9575 3.29 14.5833 3.75 14.5833C4.21 14.5833 4.58333 14.9575 4.58333 15.4167C4.58333 15.8758 4.21 16.25 3.75 16.25ZM9.58333 16.25C9.12333 16.25 8.75 15.8758 8.75 15.4167C8.75 14.9575 9.12333 14.5833 9.58333 14.5833C10.0433 14.5833 10.4167 14.9575 10.4167 15.4167C10.4167 15.8758 10.0433 16.25 9.58333 16.25Z" fill="#181818"/>
</g>
<defs>
<clipPath id="clip0_1099_7672">
<rect width="20" height="20" fill="white"/>
</clipPath>
</defs>
</svg>