<svg width="20" height="20" viewBox="0 0 20 20" fill="none" xmlns="http://www.w3.org/2000/svg">
<g id="gears 1">
<g id="Vector">
<path d="M5.0125 7.48959C5.03669 4.95844 8.34269 4.09087 9.62159 6.22872C9.74263 5.5755 10.3164 5.07916 11.0042 5.07916H11.9831L12.0814 4.98084C12.2645 4.79778 12.2644 4.50078 12.0814 4.31791L10.6613 2.89778C10.4782 2.71472 10.1815 2.71475 9.99844 2.89775L9.44416 3.45197C9.28753 3.37597 9.12675 3.30925 8.9625 3.25209V2.46875C8.9625 2.20987 8.75262 2 8.49375 2H6.48541C6.22653 2 6.01666 2.20987 6.01666 2.46875V3.25209C5.85241 3.30925 5.69163 3.37597 5.535 3.45197L4.98072 2.89778C4.79769 2.71475 4.50087 2.71478 4.31784 2.89781L2.89772 4.31794C2.71462 4.50094 2.71481 4.79797 2.89772 4.98088L3.452 5.53506C3.37597 5.69178 3.30922 5.85256 3.25213 6.01666H2.46875C2.20987 6.01666 2 6.22653 2 6.48541V8.49375C2 8.75262 2.20987 8.9625 2.46875 8.9625H3.25209C3.30922 9.12659 3.37594 9.28737 3.45197 9.44409L2.89769 9.99828C2.71463 10.1813 2.71475 10.4783 2.89769 10.6612L4.31781 12.0813C4.50084 12.2644 4.79766 12.2644 4.98069 12.0814L5.07912 11.9829V11.0042C5.07912 10.3164 5.57544 9.74259 6.22869 9.62159C5.50081 9.19022 5.0125 8.39709 5.0125 7.48959Z" fill="#181818"/>
<path d="M17.5312 10.5354H16.7743C16.6832 10.24 16.5645 9.95419 16.4195 9.68025L16.9552 9.14456C17.1383 8.96153 17.1383 8.66472 16.9552 8.48166L15.5351 7.06153C15.3522 6.87862 15.0553 6.87844 14.8722 7.06153L14.3365 7.59722C14.0627 7.45222 13.7768 7.33359 13.4812 7.24234V6.48544C13.4812 6.22656 13.2714 6.01669 13.0125 6.01669H11.0042C10.7453 6.01669 10.5354 6.22656 10.5354 6.48544V7.24234C10.2399 7.33359 9.95403 7.45222 9.68016 7.59722L9.14453 7.06153C8.91141 6.82847 8.60741 6.93572 8.48163 7.06153L7.0615 8.48166C6.87844 8.66469 6.87844 8.9615 7.0615 9.14456L7.59719 9.68025C7.45216 9.95422 7.33353 10.2401 7.24234 10.5354H6.48544C6.22656 10.5354 6.01669 10.7453 6.01669 11.0042V13.0125C6.01669 13.2714 6.22656 13.4812 6.48544 13.4812H7.24234C7.33356 13.7767 7.45216 14.0625 7.59716 14.3364L7.0615 14.8721C6.87844 15.0551 6.87844 15.3519 7.0615 15.535L8.48163 16.9551C8.6645 17.138 8.9615 17.1382 9.14453 16.9551L9.68016 16.4194C9.954 16.5644 10.2399 16.6831 10.5354 16.7743V17.5312C10.5354 17.7901 10.7453 18 11.0042 18H13.0125C13.2714 18 13.4812 17.7901 13.4812 17.5312V16.7743C13.7768 16.6831 14.0627 16.5645 14.3365 16.4195L14.8721 16.9552C15.055 17.1381 15.352 17.1382 15.535 16.9552L16.9552 15.535C17.1382 15.352 17.1382 15.0552 16.9552 14.8721L16.4195 14.3364C16.5645 14.0625 16.6831 13.7766 16.7743 13.4813H17.5312C17.7901 13.4813 18 13.2714 18 13.0125V11.0042C18 10.7453 17.7901 10.5354 17.5312 10.5354ZM12.0083 14.9875C10.3656 14.9875 9.02919 13.651 9.02919 12.0083C9.19284 8.05609 14.8245 8.05725 14.9875 12.0084C14.9875 13.651 13.651 14.9875 12.0083 14.9875Z" fill="#181818"/>
<path d="M12.0509 9.96775C10.9108 9.94069 9.96519 10.8686 9.96666 12.0083C10.0787 14.7166 13.9382 14.7162 14.05 12.0083C14.05 10.8968 13.157 9.99056 12.0509 9.96775Z" fill="#181818"/>
<path d="M5.95 7.48959C5.95 7.74672 6.01369 7.98916 6.12563 8.20244C6.19347 8.06194 6.285 7.93228 6.39859 7.81872L7.81869 6.39863C7.92947 6.28781 8.06209 6.19634 8.20675 6.12788C7.20397 5.58369 5.93881 6.34334 5.95 7.48959Z" fill="#181818"/>
</g>
</g>
</svg>
