<svg width="20" height="20" viewBox="0 0 20 20" fill="none" xmlns="http://www.w3.org/2000/svg">
<g id="history 1">
<g id="Vector">
<path d="M10.833 2C9.02118 2.00856 7.26347 2.6003 5.83526 3.6825C4.40705 4.76471 3.38903 6.27624 2.94069 7.98028L2.39226 7.1752C2.34034 7.09091 2.27137 7.0177 2.18951 6.95999C2.10766 6.90228 2.01461 6.86126 1.91597 6.8394C1.81734 6.81755 1.71517 6.81531 1.61562 6.83282C1.51607 6.85033 1.42121 6.88723 1.33675 6.9413C1.25229 6.99536 1.17999 7.06547 1.1242 7.1474C1.06841 7.22932 1.0303 7.32137 1.01215 7.41798C0.994004 7.51459 0.996203 7.61377 1.01862 7.70954C1.04103 7.8053 1.08319 7.89567 1.14256 7.97519L2.79085 10.3999C2.90534 10.5554 3.07415 10.6652 3.26585 10.709C3.4616 10.7467 3.66477 10.7088 3.83226 10.6035L6.3047 8.98681C6.38994 8.93513 6.46361 8.86734 6.5213 8.78746C6.579 8.70758 6.61955 8.61725 6.64055 8.52184C6.66154 8.42644 6.66254 8.32791 6.64349 8.23212C6.62444 8.13633 6.58574 8.04524 6.52968 7.96427C6.47361 7.8833 6.40134 7.81411 6.31716 7.76081C6.23299 7.70751 6.13862 7.6712 6.03968 7.65403C5.94075 7.63687 5.83927 7.6392 5.74128 7.66088C5.64329 7.68257 5.5508 7.72318 5.46931 7.78028L4.34473 8.51627C4.64403 7.33693 5.27881 6.26301 6.17664 5.41702C7.07447 4.57103 8.1992 3.98704 9.42251 3.73169C10.6458 3.47634 11.9184 3.55991 13.0952 3.97286C14.2719 4.38581 15.3053 5.11151 16.0776 6.06717C16.8499 7.02283 17.3299 8.16996 17.4628 9.37768C17.5958 10.5854 17.3763 11.8051 16.8295 12.8975C16.2827 13.99 15.4305 14.9113 14.3702 15.5563C13.31 16.2012 12.0843 16.5439 10.833 16.5452C9.76036 16.5424 8.70429 16.2883 7.75455 15.8043C6.80481 15.3204 5.98949 14.621 5.37791 13.7656C5.32313 13.684 5.25202 13.6139 5.16878 13.5594C5.08555 13.505 4.99189 13.4673 4.89337 13.4487C4.79485 13.4301 4.69348 13.4308 4.59528 13.451C4.49707 13.4711 4.40404 13.5102 4.32169 13.5659C4.23935 13.6216 4.16937 13.6928 4.11592 13.7753C4.06247 13.8577 4.02664 13.9498 4.01055 14.0459C3.99446 14.1421 3.99844 14.2404 4.02226 14.3351C4.04607 14.4297 4.08923 14.5188 4.14918 14.5969C5.14345 15.9883 6.57129 17.0334 8.22286 17.5786C9.87443 18.1238 11.6626 18.1404 13.3246 17.6259C14.9866 17.1114 16.4348 16.093 17.4562 14.7203C18.4777 13.3477 19.0186 11.6931 18.9995 9.99988C19.0069 7.88858 18.1512 5.86063 16.6203 4.3609C15.0893 2.86117 13.008 2.01212 10.833 2Z" fill="#D79900"/>
<path d="M10.7581 5.59995C10.5594 5.59995 10.3688 5.67657 10.2283 5.81296C10.0878 5.94935 10.0088 6.13433 10.0088 6.32721V9.99988C10.012 10.1921 10.0905 10.376 10.2284 10.5141L12.476 12.7155C12.6171 12.8502 12.8068 12.9262 13.0047 12.9271C13.2026 12.9281 13.393 12.854 13.5354 12.7206C13.6765 12.5848 13.7562 12.4001 13.757 12.2073C13.7579 12.0145 13.6798 11.8292 13.5399 11.6922L11.5073 9.70098V6.32721C11.5073 6.13433 11.4284 5.94935 11.2879 5.81296C11.1473 5.67657 10.9568 5.59995 10.7581 5.59995Z" fill="#D79900"/>
</g>
</g>
</svg>
