<svg xmlns="http://www.w3.org/2000/svg" width="14" height="14" viewBox="0 0 14 14" fill="none">
<path d="M7 0C3.1552 0 0 3.1552 0 7C0 10.8448 3.1552 14 7 14C10.8448 14 14 10.8448 14 7C14 3.1552 10.8448 0 7 0ZM7.82031 10.2812C7.82031 10.7335 7.45221 11.1016 7 11.1016C6.54779 11.1016 6.17969 10.7335 6.17969 10.2812V6.17969C6.17969 5.72748 6.54779 5.35938 7 5.35938C7.45221 5.35938 7.82031 5.72748 7.82031 6.17969V10.2812ZM7 4.53906C6.54779 4.53906 6.17969 4.17096 6.17969 3.71875C6.17969 3.26654 6.54779 2.89844 7 2.89844C7.45221 2.89844 7.82031 3.26654 7.82031 3.71875C7.82031 4.17096 7.45221 4.53906 7 4.53906Z" fill="#2196F3"/>
</svg>