<svg xmlns="http://www.w3.org/2000/svg" width="16" height="16" viewBox="0 0 16 16" fill="none">
<path d="M5.13642 8.00001C5.13642 7.64857 4.8515 7.36365 4.50006 7.36365H1.9546C1.60316 7.36365 1.31824 7.64857 1.31824 8.00001C1.31824 8.35145 1.60316 8.63637 1.9546 8.63637H4.50006C4.8515 8.63637 5.13642 8.35145 5.13642 8.00001Z" fill="#79808F"/>
<path d="M14.0456 7.36365H12.7728C12.4214 7.36365 12.1365 7.64857 12.1365 8.00001C12.1365 8.35145 12.4214 8.63637 12.7728 8.63637H14.0456C14.397 8.63637 14.6819 8.35145 14.6819 8.00001C14.6819 7.64857 14.397 7.36365 14.0456 7.36365Z" fill="#79808F"/>
<path d="M8.31825 4.81818C8.66969 4.81818 8.95461 4.53326 8.95461 4.18182V1.63636C8.95461 1.28492 8.66969 1 8.31825 1C7.96681 1 7.68188 1.28492 7.68188 1.63636V4.18182C7.68188 4.53326 7.96681 4.81818 8.31825 4.81818Z" fill="#79808F"/>
<path d="M8.31837 11.1818C7.96693 11.1818 7.68201 11.4667 7.68201 11.8182V14.3636C7.68201 14.7151 7.96693 15 8.31837 15C8.66981 15 8.95473 14.7151 8.95473 14.3636V11.8182C8.95473 11.4667 8.66981 11.1818 8.31837 11.1818Z" fill="#79808F"/>
<path d="M4.26847 3.05027C4.02003 2.80175 3.61708 2.80179 3.36852 3.05027C3.12 3.29879 3.12 3.70169 3.36852 3.95021L5.16845 5.75019C5.29271 5.87445 5.45558 5.9366 5.6184 5.9366C5.78123 5.9366 5.94414 5.87445 6.06836 5.75023C6.31688 5.50171 6.31688 5.09881 6.06836 4.85028L4.26847 3.05027Z" fill="#79808F"/>
<path d="M11.468 10.2499C11.2196 10.0014 10.8166 10.0014 10.5681 10.2499C10.3196 10.4984 10.3196 10.9013 10.5681 11.1498L12.3681 12.9497C12.4923 13.074 12.6552 13.1361 12.8181 13.1361C12.9809 13.1361 13.1438 13.074 13.268 12.9497C13.5165 12.7012 13.5165 12.2983 13.268 12.0498L11.468 10.2499Z" fill="#79808F"/>
<path d="M5.16841 10.2499L3.36852 12.0498C3.12 12.2983 3.12 12.7012 3.36852 12.9498C3.49278 13.074 3.65565 13.1361 3.81851 13.1361C3.98138 13.1361 4.14425 13.074 4.26847 12.9498L6.06836 11.1499C6.31688 10.9014 6.31688 10.4984 6.06836 10.2499C5.81983 10.0014 5.41689 10.0014 5.16841 10.2499Z" fill="#79808F"/>
</svg>