<svg xmlns="http://www.w3.org/2000/svg" width="40" height="40" viewBox="0 0 40 40" fill="none">
<path d="M11.8183 20C11.8183 18.9959 11.0042 18.1818 10.0001 18.1818H2.72736C1.72324 18.1818 0.90918 18.9959 0.90918 20C0.90918 21.0041 1.72324 21.8182 2.72736 21.8182H10.0001C11.0042 21.8182 11.8183 21.0041 11.8183 20Z" fill="white"/>
<path d="M37.2729 18.1818H33.6365C32.6324 18.1818 31.8184 18.9959 31.8184 20C31.8184 21.0041 32.6324 21.8182 33.6365 21.8182H37.2729C38.277 21.8182 39.0911 21.0041 39.0911 20C39.0911 18.9959 38.277 18.1818 37.2729 18.1818Z" fill="white"/>
<path d="M20.9092 10.9091C21.9134 10.9091 22.7274 10.095 22.7274 9.09091V1.81818C22.7274 0.814061 21.9134 0 20.9092 0C19.9051 0 19.0911 0.814061 19.0911 1.81818V9.09091C19.0911 10.095 19.9051 10.9091 20.9092 10.9091Z" fill="white"/>
<path d="M20.9092 29.0909C19.9051 29.0909 19.0911 29.905 19.0911 30.9091V38.1818C19.0911 39.1859 19.9051 40 20.9092 40C21.9134 40 22.7274 39.1859 22.7274 38.1818V30.9091C22.7274 29.905 21.9134 29.0909 20.9092 29.0909Z" fill="white"/>
<path d="M9.33819 5.85782C8.62838 5.14776 7.4771 5.14788 6.76692 5.85782C6.05686 6.56788 6.05686 7.71903 6.76692 8.42909L11.9096 13.5719C12.2646 13.9269 12.73 14.1045 13.1952 14.1045C13.6604 14.1045 14.1258 13.9269 14.4807 13.572C15.1908 12.8619 15.1908 11.7108 14.4807 11.0007L9.33819 5.85782Z" fill="white"/>
<path d="M29.9087 26.4284C29.1988 25.7184 28.0475 25.7184 27.3374 26.4284C26.6274 27.1384 26.6275 28.2896 27.3374 28.9996L32.4802 34.1422C32.8352 34.4972 33.3006 34.6747 33.7659 34.6747C34.2312 34.6747 34.6966 34.4971 35.0515 34.1422C35.7616 33.4321 35.7616 32.281 35.0515 31.5709L29.9087 26.4284Z" fill="white"/>
<path d="M11.9097 26.4284L6.76716 31.5709C6.0571 32.281 6.0571 33.4321 6.76716 34.1422C7.12219 34.4972 7.58753 34.6747 8.05286 34.6747C8.51819 34.6747 8.98353 34.4972 9.33844 34.1422L14.481 28.9996C15.191 28.2896 15.191 27.1384 14.481 26.4284C13.7709 25.7183 12.6196 25.7183 11.9097 26.4284Z" fill="white"/>
</svg>