<svg width="62" height="62" viewBox="0 0 62 62" fill="none" xmlns="http://www.w3.org/2000/svg">
<rect x="3" y="3" width="56" height="56" rx="28" fill="#E52A34"/>
<rect x="3" y="3" width="56" height="56" rx="28" stroke="#F8E1E2" stroke-width="6"/>
<path d="M42.1183 21.1184L21.1183 42.1184C20.9525 42.2729 20.7331 42.3571 20.5064 42.3531C20.2797 42.3491 20.0634 42.2572 19.9031 42.0969C19.7428 41.9366 19.651 41.7203 19.647 41.4936C19.643 41.267 19.7271 41.0476 19.8817 40.8817L29.6478 31.1167C27.8396 31.3651 26.1416 32.1308 24.7583 33.3217C24.6419 33.4213 24.507 33.497 24.3613 33.5444C24.2156 33.5918 24.062 33.6101 23.9092 33.5982C23.7565 33.5863 23.6076 33.5444 23.471 33.4749C23.3345 33.4055 23.2129 33.3098 23.1133 33.1934C22.9122 32.9582 22.8127 32.6528 22.8368 32.3443C22.8609 32.0358 23.0065 31.7495 23.2417 31.5484C25.3992 29.6911 28.1531 28.6723 31 28.6784C31.2217 28.6784 31.4433 28.69 31.6533 28.7017C31.7668 28.7117 31.8784 28.7376 31.9847 28.7787L34.0987 26.6647C31.8464 26.1761 29.5103 26.2286 27.2823 26.8179C25.0542 27.4073 22.9978 28.5167 21.2817 30.055C21.066 30.2453 20.7876 30.3491 20.5 30.3467C20.2622 30.3487 20.0294 30.278 19.8329 30.1441C19.6363 30.0101 19.4854 29.8193 19.4004 29.5972C19.3154 29.3751 19.3003 29.1323 19.3571 28.9013C19.4139 28.6704 19.5399 28.4623 19.7183 28.305C22.8219 25.5321 26.8381 23.9995 31 24C32.6775 23.9927 34.3461 24.2446 35.9467 24.7467C35.9642 24.7467 35.9747 24.7654 35.991 24.7712L40.8817 19.8817C41.0475 19.7271 41.2669 19.643 41.4936 19.647C41.7203 19.651 41.9366 19.7428 42.0969 19.9031C42.2572 20.0634 42.349 20.2797 42.353 20.5064C42.357 20.7331 42.2729 20.9525 42.1183 21.1184ZM32.2565 33.4687C32.1041 33.4375 31.9469 33.4371 31.7943 33.4676C31.6417 33.498 31.4968 33.5587 31.368 33.646C31.2392 33.7333 31.1292 33.8455 31.0444 33.976C30.9596 34.1064 30.9018 34.2526 30.8743 34.4057C30.8468 34.5589 30.8503 34.716 30.8844 34.8678C30.9186 35.0196 30.9828 35.163 31.0732 35.2896C31.1636 35.4163 31.2784 35.5235 31.4109 35.6051C31.5434 35.6867 31.6909 35.741 31.8447 35.7647C32.5515 35.8903 33.2184 36.1818 33.7907 36.6152C33.9115 36.7155 34.0513 36.7903 34.2017 36.8352C34.3521 36.8802 34.5101 36.8943 34.6661 36.8768C34.8221 36.8592 34.973 36.8104 35.1097 36.7331C35.2463 36.6559 35.366 36.5518 35.4616 36.4273C35.5571 36.3027 35.6265 36.1601 35.6656 36.008C35.7047 35.856 35.7127 35.6976 35.6892 35.5424C35.6656 35.3872 35.611 35.2383 35.5285 35.1047C35.4461 34.9711 35.3375 34.8555 35.2093 34.7649C34.3424 34.1037 33.33 33.6593 32.2565 33.4687ZM36.2337 29.8929C36.0958 29.826 35.9461 29.7869 35.7931 29.7779C35.6401 29.7689 35.4868 29.7901 35.342 29.8403C35.1973 29.8905 35.0638 29.9688 34.9492 30.0706C34.8347 30.1724 34.7413 30.2957 34.6744 30.4336C34.6075 30.5715 34.5685 30.7212 34.5595 30.8742C34.5504 31.0272 34.5716 31.1804 34.6219 31.3252C34.6721 31.47 34.7503 31.6035 34.8521 31.7181C34.9539 31.8326 35.0773 31.926 35.2152 31.9929C35.9436 32.3458 36.6232 32.7917 37.237 33.3194C37.3521 33.4245 37.487 33.5056 37.634 33.5577C37.7809 33.6099 37.9368 33.632 38.0924 33.6229C38.248 33.6138 38.4002 33.5736 38.5401 33.5046C38.6799 33.4357 38.8045 33.3394 38.9065 33.2215C39.0084 33.1036 39.0858 32.9665 39.1339 32.8182C39.182 32.6699 39.1999 32.5135 39.1865 32.3582C39.1731 32.2028 39.1288 32.0518 39.056 31.9139C38.9833 31.776 38.8836 31.6541 38.763 31.5554C37.9962 30.893 37.1459 30.334 36.2337 29.8929ZM42.2735 28.3062C41.5032 27.6237 40.6731 27.0118 39.7932 26.478C39.5283 26.3176 39.2106 26.2689 38.9098 26.3428C38.6091 26.4166 38.35 26.6069 38.1896 26.8718C38.0291 27.1366 37.9805 27.4544 38.0543 27.7551C38.1282 28.0558 38.3185 28.3149 38.5833 28.4754C39.343 28.936 40.0596 29.4643 40.7242 30.0539C40.9562 30.259 41.2603 30.3636 41.5694 30.3445C41.8786 30.3255 42.1675 30.1844 42.3727 29.9524C42.5778 29.7203 42.6824 29.4162 42.6633 29.1071C42.6443 28.7979 42.5032 28.509 42.2712 28.3039L42.2735 28.3062ZM31 37.7084C30.7116 37.7084 30.4296 37.7939 30.1898 37.9541C29.95 38.1144 29.763 38.3421 29.6527 38.6086C29.5423 38.8751 29.5134 39.1683 29.5697 39.4512C29.626 39.7341 29.7648 39.9939 29.9688 40.1979C30.1727 40.4018 30.4326 40.5407 30.7155 40.597C30.9984 40.6533 31.2916 40.6244 31.5581 40.514C31.8245 40.4036 32.0523 40.2167 32.2126 39.9769C32.3728 39.7371 32.4583 39.4551 32.4583 39.1667C32.4583 38.7799 32.3047 38.409 32.0312 38.1355C31.7577 37.862 31.3868 37.7084 31 37.7084Z" fill="white"/>
</svg>
