<svg width="32" height="32" viewBox="0 0 32 32" fill="none" xmlns="http://www.w3.org/2000/svg">
<g id="notification (2) 2">
<path id="Vector" d="M25.286 19.7077V14.3877C25.286 10.4361 22.6862 6.99034 19.1066 5.70325C19.1484 5.5 19.1716 5.2923 19.1716 5.08452C19.1717 3.38196 17.751 2 16.0007 2C14.2504 2 12.8297 3.38196 12.8297 5.08452C12.8297 5.28777 12.8529 5.49095 12.89 5.68515C11.6598 6.10968 10.5223 6.78256 9.552 7.69482C7.7228 9.41095 6.71535 11.7187 6.71535 14.1935V19.7077C6.71535 19.9019 6.55285 20.0645 6.34855 20.0645C4.63541 20.0645 3.17293 21.32 3.01508 22.9187C2.92685 23.8084 3.22868 24.6935 3.84614 25.3529C4.45895 26.0077 5.33645 26.3871 6.25101 26.3871H11.8501C12.0822 28.4149 13.8558 30 16.0007 30C18.1456 30 19.9191 28.4149 20.1513 26.3871H25.7504C26.665 26.3871 27.5424 26.0077 28.1552 25.3529C28.7681 24.6935 29.0699 23.8084 28.9863 22.9187C28.8285 21.32 27.3614 20.0645 25.6528 20.0645C25.4485 20.0644 25.286 19.9064 25.286 19.7077ZM16.0007 3.80641C16.7249 3.80641 17.3145 4.37997 17.3145 5.08445C17.3145 5.14312 17.3052 5.19735 17.2959 5.25602C16.9802 5.21085 16.6599 5.17925 16.3395 5.1702C15.787 5.1521 15.2438 5.1883 14.7053 5.26055C14.696 5.20187 14.6867 5.14765 14.6867 5.08897C14.6868 4.37997 15.2765 3.80641 16.0007 3.80641ZM16.0007 28.1934C14.8818 28.1934 13.944 27.4166 13.7258 26.387H18.2755C18.0575 27.4167 17.1196 28.1934 16.0007 28.1934ZM27.1385 23.0903C27.1756 23.4787 27.0503 23.8535 26.7857 24.138C26.5117 24.4225 26.1496 24.5805 25.7504 24.5805H6.25109C5.8518 24.5805 5.48973 24.4225 5.22039 24.138C4.95112 23.8535 4.82575 23.4786 4.86289 23.0903C4.92786 22.4083 5.58254 21.8709 6.34855 21.8709C7.57425 21.8709 8.57239 20.9 8.57239 19.7077V14.1935C8.57239 12.2154 9.38019 10.3684 10.8427 8.99547C12.2401 7.68132 14.0601 6.96771 16.0007 6.96771C16.0936 6.96771 16.1817 6.96771 16.2746 6.97224C20.2162 7.10769 23.429 10.4361 23.429 14.3877V19.7077C23.429 20.9 24.4271 21.8709 25.6528 21.8709C26.4188 21.8709 27.0689 22.4083 27.1385 23.0903Z" fill="black"/>
<circle id="Ellipse 7" cx="24" cy="8" r="4" fill="#FD1212"/>
</g>
</svg>
