<svg width="30" height="30" viewBox="0 0 30 30" fill="none" xmlns="http://www.w3.org/2000/svg">
<g filter="url(#filter0_dd_1155_10527)">
<rect x="3" y="2" width="24" height="24" rx="4" fill="#1A202C" shape-rendering="crispEdges"/>
<path d="M19.9211 8.11944C19.7618 7.96016 19.5037 7.96021 19.3444 8.11944C19.1852 8.27869 19.1852 8.53687 19.3444 8.69613C20.5049 9.85654 21.144 11.3994 21.144 13.0406C21.144 13.2658 21.3266 13.4483 21.5517 13.4483C21.777 13.4483 21.9595 13.2658 21.9595 13.0406C21.9595 11.1816 21.2356 9.43389 19.9211 8.11944Z" fill="white"/>
<path d="M10.6556 8.11947C10.4963 7.96019 10.2381 7.96024 10.0789 8.11947C8.76445 9.434 8.04053 11.1816 8.04053 13.0406C8.04053 13.2658 8.22311 13.4483 8.44831 13.4483C8.67351 13.4483 8.85609 13.2658 8.85609 13.0406C8.85609 11.3995 9.49517 9.85662 10.6556 8.69616C10.8148 8.5369 10.8148 8.27872 10.6556 8.11947Z" fill="white"/>
<path d="M18.1089 9.35472C17.9496 9.51398 17.9496 9.77216 18.1089 9.93144C18.9394 10.7619 19.3968 11.866 19.3968 13.0406C19.3968 13.2658 19.5794 13.4483 19.8046 13.4483C20.0298 13.4483 20.2123 13.2658 20.2123 13.0406C20.2123 11.6482 19.6701 10.3392 18.6856 9.3547C18.5263 9.19547 18.2681 9.1955 18.1089 9.35472Z" fill="white"/>
<path d="M11.8909 9.35491C11.7316 9.19568 11.4735 9.19571 11.3142 9.35494C10.3298 10.3395 9.7876 11.6484 9.7876 13.0406C9.7876 13.2658 9.9702 13.4483 10.1954 13.4483C10.4206 13.4483 10.6032 13.2658 10.6032 13.0406C10.6032 11.8662 11.0605 10.7621 11.8909 9.93162C12.0501 9.77234 12.0501 9.51414 11.8909 9.35491Z" fill="white"/>
<path d="M18.4652 16.0017V13.9141C18.4652 13.1526 18.2228 12.4301 17.7641 11.8245C17.3808 11.3184 16.858 10.923 16.2706 10.6904C16.1888 10.0621 15.6502 9.57529 15 9.57529C14.3498 9.57529 13.8111 10.0621 13.7294 10.6904C13.142 10.923 12.6192 11.3184 12.2358 11.8245C11.7772 12.4301 11.5347 13.1526 11.5347 13.9141V16.0017L10.7042 17.6628C10.6411 17.7891 10.6478 17.9393 10.7221 18.0595C10.7964 18.1797 10.9276 18.2529 11.069 18.2529H18.931C19.0723 18.2529 19.2036 18.1797 19.2779 18.0595C19.3522 17.9393 19.359 17.7892 19.2957 17.6628L18.4652 16.0017Z" fill="white"/>
<path d="M15 20C15.7341 20 16.3833 19.6308 16.7726 19.0685H13.2274C13.6166 19.6308 14.2658 20 15 20Z" fill="white"/>
</g>
<defs>
<filter id="filter0_dd_1155_10527" x="0" y="0" width="30" height="30" filterUnits="userSpaceOnUse" color-interpolation-filters="sRGB">
<feFlood flood-opacity="0" result="BackgroundImageFix"/>
<feColorMatrix in="SourceAlpha" type="matrix" values="0 0 0 0 0 0 0 0 0 0 0 0 0 0 0 0 0 0 127 0" result="hardAlpha"/>
<feOffset dy="1"/>
<feGaussianBlur stdDeviation="1"/>
<feComposite in2="hardAlpha" operator="out"/>
<feColorMatrix type="matrix" values="0 0 0 0 0.0627451 0 0 0 0 0.0941176 0 0 0 0 0.156863 0 0 0 0.06 0"/>
<feBlend mode="normal" in2="BackgroundImageFix" result="effect1_dropShadow_1155_10527"/>
<feColorMatrix in="SourceAlpha" type="matrix" values="0 0 0 0 0 0 0 0 0 0 0 0 0 0 0 0 0 0 127 0" result="hardAlpha"/>
<feOffset dy="1"/>
<feGaussianBlur stdDeviation="1.5"/>
<feComposite in2="hardAlpha" operator="out"/>
<feColorMatrix type="matrix" values="0 0 0 0 0.0627451 0 0 0 0 0.0941176 0 0 0 0 0.156863 0 0 0 0.1 0"/>
<feBlend mode="normal" in2="effect1_dropShadow_1155_10527" result="effect2_dropShadow_1155_10527"/>
<feBlend mode="normal" in="SourceGraphic" in2="effect2_dropShadow_1155_10527" result="shape"/>
</filter>
</defs>
</svg>
