<svg xmlns="http://www.w3.org/2000/svg" width="20" height="20" viewBox="0 0 20 20" fill="none">
<path d="M3.60628 6.84848C3.63658 6.90909 3.69719 6.9697 3.7881 6.9697L5.54567 7.42424L7.63658 9.51515L9.09113 7.72727L7.18204 5.81818L6.72749 4.0303C6.69719 3.93939 6.66688 3.87879 6.60628 3.84848L3.18204 1.72727C3.06082 1.66666 2.90931 1.66666 2.8184 1.75757L1.51537 3.0606C1.42446 3.15151 1.39416 3.30303 1.48507 3.42424L3.60628 6.84848Z" fill="#181818"/>
<path d="M18.061 15.5455L13.6973 11.1818C13.5761 11.0606 13.3943 11.0606 13.2731 11.1818L12.9094 11.5455L12.0913 10.7273L10.6367 12.5152L11.2731 13.1515L10.9094 13.5152C10.7882 13.6364 10.7882 13.8485 10.9094 13.9394L15.2731 18.303C16.0004 19.0303 17.2125 18.9697 17.9398 18.2121C18.7276 17.4848 18.7882 16.2727 18.061 15.5455Z" fill="#181818"/>
<path d="M13.5455 8C15 8.42424 16.6667 7.9697 17.6667 6.69697C18.6667 5.48485 18.8182 3.78788 18.0909 2.42424C18 2.24242 17.7273 2.21212 17.5758 2.36364L15.9697 4.33333L14.5758 4.24242L14.2424 2.90909L15.8485 0.939394C15.9697 0.757575 15.9091 0.515151 15.697 0.454545C14.2424 0.0303028 12.6061 0.515151 11.6061 1.75758C10.6061 2.9697 10.4546 4.69697 11.1818 6.06061L5.72729 12.7879C5.45457 12.7273 5.21214 12.697 4.93941 12.697C3.87881 12.697 2.87881 13.1818 2.21214 14C1.00002 15.5152 1.24244 17.697 2.72729 18.9091C3.36366 19.4242 4.12123 19.697 4.93941 19.697C6.00002 19.697 7.00002 19.2424 7.66669 18.3939C8.51517 17.3333 8.69699 15.9091 8.12123 14.697L13.5455 8ZM6.63638 17.1818C6.63638 17.303 6.57578 17.3939 6.45457 17.4242L4.93941 18.1515C4.8182 18.2121 4.72729 18.1818 4.63638 18.1212L3.24244 17.1818C3.15154 17.1212 3.09093 17.0303 3.12123 16.9091L3.24244 15.2121C3.24244 15.0909 3.30305 15 3.42426 14.9697L4.93941 14.2424C5.03032 14.1818 5.15154 14.2121 5.24244 14.2727L6.63638 15.2424C6.72729 15.303 6.7879 15.3939 6.7576 15.5152L6.63638 17.1818Z" fill="#181818"/>
</svg>