<svg xmlns="http://www.w3.org/2000/svg" width="20" height="20" viewBox="0 0 20 20" fill="none">
<path d="M17.02 8.47C16.84 7.66 16.48 6.85 16.03 6.13L16.93 4.24L15.67 2.98L13.78 3.88C13.06 3.43 12.34 3.16 11.53 2.98L10.9 1H9.1L8.38 2.98C7.57 3.16 6.85 3.52 6.13 3.97L4.24 3.07L2.98 4.24L3.88 6.13C3.43 6.85 3.16 7.57 2.98 8.38L1 9.1V10.9L2.98 11.62C3.16 12.43 3.52 13.24 3.88 13.87L2.98 15.76L4.24 17.02L6.13 16.12C6.85 16.57 7.57 16.93 8.38 17.11L9.1 19H10.9L11.62 17.02C11.89 16.93 12.25 16.84 12.52 16.75L11.08 15.31C7.66 15.94 4.6 13.42 4.6 10C4.6 7.03 7.03 4.6 10 4.6C13.33 4.6 15.85 7.57 15.31 10.72L16.84 12.25C16.93 11.98 17.02 11.8 17.02 11.53L19 10.9V9.1L17.02 8.47Z" fill="black"/>
<path d="M18.64 16.66L13.33 11.35C14.59 8.56 11.98 5.59 9.1 6.4L10.72 8.02C11.44 8.74 11.44 9.91 10.72 10.54C10.09 11.26 8.83 11.26 8.2 10.54L6.58 9.01C5.77 11.53 8.38 14.41 11.35 13.24L16.66 18.55C17.2 19.09 18.01 19.09 18.55 18.55C19.09 18.1 19.09 17.2 18.64 16.66Z" fill="black"/>
</svg>