<svg width="32" height="32" viewBox="0 0 32 32" fill="none" xmlns="http://www.w3.org/2000/svg">
<rect width="32" height="32" rx="16" fill="#F2F5FA"/>
<path d="M22.668 16.0003C22.668 16.2213 22.5802 16.4333 22.4239 16.5896C22.2676 16.7459 22.0556 16.8337 21.8346 16.8337H15.5096L17.4263 18.742C17.5044 18.8195 17.5664 18.9116 17.6087 19.0132C17.651 19.1147 17.6728 19.2236 17.6728 19.3337C17.6728 19.4437 17.651 19.5526 17.6087 19.6541C17.5664 19.7557 17.5044 19.8479 17.4263 19.9253C17.3488 20.0034 17.2567 20.0654 17.1551 20.1077C17.0536 20.15 16.9446 20.1718 16.8346 20.1718C16.7246 20.1718 16.6157 20.15 16.5142 20.1077C16.4126 20.0654 16.3204 20.0034 16.243 19.9253L12.9096 16.592C12.8338 16.5127 12.7743 16.4193 12.7346 16.317C12.6513 16.1141 12.6513 15.8865 12.7346 15.6837C12.7743 15.5814 12.8338 15.4879 12.9096 15.4087L16.243 12.0753C16.3207 11.9976 16.4129 11.936 16.5144 11.8939C16.6159 11.8519 16.7248 11.8302 16.8346 11.8302C16.9445 11.8302 17.0533 11.8519 17.1548 11.8939C17.2564 11.936 17.3486 11.9976 17.4263 12.0753C17.504 12.153 17.5656 12.2453 17.6077 12.3468C17.6497 12.4483 17.6714 12.5571 17.6714 12.667C17.6714 12.7769 17.6497 12.8857 17.6077 12.9872C17.5656 13.0887 17.504 13.181 17.4263 13.2587L15.5096 15.167H21.8346C22.0556 15.167 22.2676 15.2548 22.4239 15.4111C22.5802 15.5674 22.668 15.7793 22.668 16.0003ZM11.8346 7.66699H20.168C20.831 7.66699 21.4669 7.93038 21.9357 8.39923C22.4046 8.86807 22.668 9.50395 22.668 10.167V12.667C22.668 12.888 22.5802 13.1 22.4239 13.2562C22.2676 13.4125 22.0556 13.5003 21.8346 13.5003C21.6136 13.5003 21.4017 13.4125 21.2454 13.2562C21.0891 13.1 21.0013 12.888 21.0013 12.667V10.167C21.0013 9.94598 20.9135 9.73402 20.7572 9.57774C20.6009 9.42146 20.389 9.33366 20.168 9.33366H11.8346C11.6136 9.33366 11.4017 9.42146 11.2454 9.57774C11.0891 9.73402 11.0013 9.94598 11.0013 10.167V21.8337C11.0013 22.0547 11.0891 22.2666 11.2454 22.4229C11.4017 22.5792 11.6136 22.667 11.8346 22.667H20.168C20.389 22.667 20.6009 22.5792 20.7572 22.4229C20.9135 22.2666 21.0013 22.0547 21.0013 21.8337V19.3337C21.0013 19.1126 21.0891 18.9007 21.2454 18.7444C21.4017 18.5881 21.6136 18.5003 21.8346 18.5003C22.0556 18.5003 22.2676 18.5881 22.4239 18.7444C22.5802 18.9007 22.668 19.1126 22.668 19.3337V21.8337C22.668 22.4967 22.4046 23.1326 21.9357 23.6014C21.4669 24.0703 20.831 24.3337 20.168 24.3337H11.8346C11.1716 24.3337 10.5357 24.0703 10.0669 23.6014C9.59803 23.1326 9.33464 22.4967 9.33464 21.8337V10.167C9.33464 9.50395 9.59803 8.86807 10.0669 8.39923C10.5357 7.93038 11.1716 7.66699 11.8346 7.66699Z" fill="#2C313A"/>
</svg>
