<svg xmlns="http://www.w3.org/2000/svg" width="16" height="16" viewBox="0 0 16 16" fill="none">
<path d="M12.3478 13.6H11.8413V11.8313C11.8419 11.2241 11.7022 10.6262 11.4347 10.0912C11.1673 9.55611 10.7804 9.10057 10.3087 8.76533L9.23261 8L10.3087 7.23467C10.7804 6.89943 11.1673 6.44389 11.4347 5.90883C11.7022 5.37377 11.8419 4.77588 11.8413 4.16867V2.4H12.3478C12.5208 2.4 12.6867 2.32625 12.809 2.19497C12.9313 2.0637 13 1.88565 13 1.7C13 1.51435 12.9313 1.3363 12.809 1.20503C12.6867 1.07375 12.5208 1 12.3478 1H3.65217C3.47921 1 3.31332 1.07375 3.19102 1.20503C3.06871 1.3363 3 1.51435 3 1.7C3 1.88565 3.06871 2.0637 3.19102 2.19497C3.31332 2.32625 3.47921 2.4 3.65217 2.4H4.26304V4.16867C4.26207 4.77595 4.40159 5.374 4.66909 5.90913C4.93659 6.44426 5.32369 6.89973 5.79565 7.23467L6.87174 8L5.79565 8.76533C5.3257 9.10161 4.94073 9.55767 4.67517 10.0927C4.40961 10.6278 4.27175 11.2251 4.27391 11.8313V13.6H3.65217C3.47921 13.6 3.31332 13.6737 3.19102 13.805C3.06871 13.9363 3 14.1143 3 14.3C3 14.4857 3.06871 14.6637 3.19102 14.795C3.31332 14.9262 3.47921 15 3.65217 15H12.3478C12.5208 15 12.6867 14.9262 12.809 14.795C12.9313 14.6637 13 14.4857 13 14.3C13 14.1143 12.9313 13.9363 12.809 13.805C12.6867 13.6737 12.5208 13.6 12.3478 13.6ZM5.56739 11.8313C5.56703 11.4554 5.6534 11.0852 5.81879 10.7537C5.98418 10.4223 6.22344 10.14 6.51522 9.932L8.05217 8.84L9.58696 9.932C9.879 10.1399 10.1186 10.4221 10.2843 10.7535C10.4501 11.0849 10.5369 11.4552 10.537 11.8313V13.6H5.56739V11.8313Z" fill="#79808F"/>
</svg>