<svg width="31" height="30" viewBox="0 0 31 30" fill="none" xmlns="http://www.w3.org/2000/svg">
<g filter="url(#filter0_dd_1155_11353)">
<rect x="3.66675" y="2" width="24" height="24" rx="4" fill="#1A202C" shape-rendering="crispEdges"/>
<path fill-rule="evenodd" clip-rule="evenodd" d="M15.7073 9.46341C13.3627 9.46341 11.4634 11.3617 11.4634 13.7016C11.4634 16.0414 13.3627 17.9397 15.7073 17.9397C16.8771 17.9397 17.935 17.4681 18.7033 16.7033C19.4751 15.9351 19.9512 14.8744 19.9512 13.7016C19.9512 11.3617 18.0519 9.46341 15.7073 9.46341ZM10 13.7016C10 10.5519 12.556 8 15.7073 8C18.8586 8 21.4146 10.5519 21.4146 13.7016C21.4146 15.0151 20.9693 16.2257 20.2224 17.1894L21.7854 18.7506C22.0713 19.0362 22.0716 19.4995 21.786 19.7854C21.5004 20.0713 21.0371 20.0716 20.7512 19.786L19.1856 18.2222C18.2229 18.9624 17.0161 19.4031 15.7073 19.4031C12.556 19.4031 10 16.8513 10 13.7016Z" fill="white"/>
</g>
<defs>
<filter id="filter0_dd_1155_11353" x="0.666748" y="0" width="30" height="30" filterUnits="userSpaceOnUse" color-interpolation-filters="sRGB">
<feFlood flood-opacity="0" result="BackgroundImageFix"/>
<feColorMatrix in="SourceAlpha" type="matrix" values="0 0 0 0 0 0 0 0 0 0 0 0 0 0 0 0 0 0 127 0" result="hardAlpha"/>
<feOffset dy="1"/>
<feGaussianBlur stdDeviation="1"/>
<feComposite in2="hardAlpha" operator="out"/>
<feColorMatrix type="matrix" values="0 0 0 0 0.0627451 0 0 0 0 0.0941176 0 0 0 0 0.156863 0 0 0 0.06 0"/>
<feBlend mode="normal" in2="BackgroundImageFix" result="effect1_dropShadow_1155_11353"/>
<feColorMatrix in="SourceAlpha" type="matrix" values="0 0 0 0 0 0 0 0 0 0 0 0 0 0 0 0 0 0 127 0" result="hardAlpha"/>
<feOffset dy="1"/>
<feGaussianBlur stdDeviation="1.5"/>
<feComposite in2="hardAlpha" operator="out"/>
<feColorMatrix type="matrix" values="0 0 0 0 0.0627451 0 0 0 0 0.0941176 0 0 0 0 0.156863 0 0 0 0.1 0"/>
<feBlend mode="normal" in2="effect1_dropShadow_1155_11353" result="effect2_dropShadow_1155_11353"/>
<feBlend mode="normal" in="SourceGraphic" in2="effect2_dropShadow_1155_11353" result="shape"/>
</filter>
</defs>
</svg>
