<svg xmlns="http://www.w3.org/2000/svg" width="20" height="20" viewBox="0 0 20 20" fill="none">
<path d="M18.0657 12.2333C18.0076 12.008 17.9061 11.7968 17.7672 11.612C17.6282 11.4271 17.4546 11.2722 17.2563 11.1563C17.0594 11.0398 16.896 10.8728 16.7821 10.6719C16.6683 10.4711 16.6081 10.2434 16.6074 10.0114V9.98789C16.6081 9.75597 16.6684 9.52827 16.7823 9.3275C16.8963 9.12673 17.0599 8.95991 17.2569 8.84365C17.6552 8.60872 17.9458 8.2225 18.0649 7.76966C18.1841 7.31682 18.1221 6.83433 17.8925 6.42798L16.9854 4.82471C16.7549 4.41866 16.3756 4.12244 15.9308 4.00115C15.486 3.87987 15.0122 3.94343 14.6134 4.17788L14.5526 4.21154C14.3729 4.31833 14.1686 4.3746 13.9606 4.3746C13.7525 4.3746 13.5482 4.31833 13.3686 4.21154L13.2364 4.13279C13.0558 4.02822 12.9057 3.87665 12.8014 3.69358C12.6972 3.5105 12.6425 3.30251 12.6431 3.09087V3.01817C12.6424 2.54944 12.4593 2.10012 12.1339 1.76867C11.8086 1.43723 11.3675 1.25071 10.9074 1.25H9.09302C8.63289 1.25071 8.19181 1.43723 7.86645 1.76867C7.54109 2.10012 7.35799 2.54944 7.35729 3.01817V3.09087C7.35864 3.30288 7.30458 3.51144 7.20066 3.69513C7.09673 3.87883 6.9467 4.03105 6.76595 4.13615L6.6305 4.21154C6.45086 4.31847 6.24654 4.37482 6.03849 4.37482C5.83043 4.37482 5.62612 4.31847 5.44648 4.21154L5.38437 4.17452C4.98548 3.9407 4.51184 3.87756 4.06732 3.99894C3.62279 4.12032 3.24365 4.41631 3.01303 4.82202L2.10784 6.42529C1.87831 6.83164 1.81633 7.31413 1.93548 7.76697C2.05463 8.2198 2.34519 8.60603 2.74346 8.84096C2.94141 8.95995 3.10547 9.12947 3.21945 9.33279C3.33342 9.53611 3.39337 9.7662 3.39337 10.0003C3.39337 10.2345 3.33342 10.4646 3.21945 10.6679C3.10547 10.8712 2.94141 11.0407 2.74346 11.1597C2.54593 11.2757 2.37278 11.4303 2.23392 11.6145C2.09505 11.7987 1.99319 12.009 1.93416 12.2333C1.87513 12.4577 1.86008 12.6917 1.88988 12.922C1.91969 13.1523 1.99375 13.3743 2.10784 13.5754L2.98 15.1154C3.22012 15.5375 3.61474 15.8453 4.07734 15.9715C4.53994 16.0977 5.03277 16.0319 5.4478 15.7885C5.62813 15.6807 5.8334 15.6239 6.04245 15.6239C6.25151 15.6239 6.45678 15.6807 6.6371 15.7885L6.76925 15.8632C6.94954 15.9689 7.099 16.1215 7.20233 16.3054C7.30566 16.4893 7.35914 16.6979 7.35729 16.9098C7.35799 17.3978 7.54863 17.8655 7.88739 18.2105C8.22615 18.5554 8.68538 18.7495 9.16437 18.75H10.836C11.315 18.7495 11.7742 18.5554 12.113 18.2105C12.4518 17.8655 12.6424 17.3978 12.6431 16.9098C12.6417 16.6977 12.6957 16.489 12.7997 16.3052C12.9036 16.1214 13.0536 15.9691 13.2344 15.8638L13.3666 15.7858C13.5463 15.6789 13.7508 15.6225 13.9589 15.6225C14.1671 15.6225 14.3715 15.6789 14.5513 15.7858C14.9662 16.0291 15.4589 16.0949 15.9214 15.9688C16.3839 15.8426 16.7784 15.5347 17.0184 15.1127L17.8899 13.5754C18.0049 13.3747 18.0797 13.1527 18.1099 12.9223C18.14 12.6919 18.125 12.4577 18.0657 12.2333ZM16.7442 12.9023L15.876 14.4423C15.8114 14.5549 15.7058 14.6371 15.582 14.6708C15.4583 14.7046 15.3265 14.6873 15.2153 14.6227C14.8337 14.3976 14.4003 14.2795 13.9594 14.2802C13.5184 14.2809 13.0855 14.4004 12.7045 14.6267L12.5929 14.694C12.207 14.9152 11.8859 15.2371 11.6625 15.6265C11.4391 16.0158 11.3215 16.4588 11.3216 16.9098C11.3215 17.0409 11.2702 17.1666 11.1792 17.2592C11.0881 17.3518 10.9647 17.4038 10.836 17.4038H9.16437C9.03569 17.4038 8.91227 17.3518 8.82121 17.2592C8.73016 17.1666 8.67892 17.0409 8.67874 16.9098C8.6803 16.4583 8.56379 16.0146 8.34117 15.6242C8.11856 15.2338 7.79789 14.9109 7.41213 14.6887L7.30576 14.6261C6.92387 14.3959 6.48817 14.2747 6.04443 14.2754C5.60369 14.2759 5.17079 14.3942 4.78906 14.6187C4.6778 14.6833 4.54601 14.7006 4.4223 14.6668C4.29859 14.633 4.19296 14.5509 4.12833 14.4383L3.25287 12.9023C3.22555 12.8543 3.2078 12.8013 3.20065 12.7463C3.1935 12.6912 3.19708 12.6353 3.21121 12.5817C3.22533 12.5281 3.2497 12.4779 3.28293 12.4339C3.31616 12.39 3.35759 12.3531 3.40484 12.3255C3.8038 12.0884 4.1348 11.7489 4.36484 11.3409C4.59488 10.9328 4.71593 10.4705 4.71593 10C4.71593 9.52947 4.59488 9.06716 4.36484 8.65913C4.1348 8.25111 3.8038 7.91163 3.40484 7.67452C3.35759 7.64712 3.31618 7.61038 3.28305 7.56646C3.24992 7.52254 3.22573 7.47232 3.21191 7.41875C3.19774 7.36519 3.19412 7.30931 3.20126 7.25432C3.20841 7.19933 3.22617 7.14632 3.25354 7.09837L4.16005 5.49779C4.18716 5.44983 4.22328 5.40779 4.26634 5.37405C4.30941 5.34032 4.35857 5.31556 4.41103 5.30118C4.46349 5.2868 4.51822 5.2831 4.57208 5.29027C4.62595 5.29744 4.6779 5.31535 4.72497 5.34298L4.78708 5.37933C5.17007 5.60529 5.60505 5.72371 6.04764 5.72253C6.49023 5.72135 6.92459 5.6006 7.30642 5.3726L7.41213 5.31C7.79769 5.08801 8.11824 4.76543 8.34085 4.37541C8.56346 3.98539 8.68009 3.54202 8.67874 3.09087V3.01817C8.67874 2.90625 8.72239 2.7989 8.80008 2.71976C8.87777 2.64062 8.98314 2.59615 9.09302 2.59615H10.9074C10.9618 2.59615 11.0156 2.60707 11.0659 2.62828C11.1162 2.64949 11.1618 2.68057 11.2003 2.71976C11.2388 2.75895 11.2693 2.80547 11.2901 2.85667C11.3109 2.90788 11.3216 2.96275 11.3216 3.01817V3.09087C11.3201 3.54232 11.4367 3.98603 11.6593 4.3764C11.8819 4.76676 12.2025 5.0897 12.5882 5.31202L12.6946 5.37394C13.0765 5.60198 13.5109 5.72269 13.9535 5.72375C14.3961 5.72482 14.8311 5.60619 15.214 5.38L15.2748 5.345C15.3218 5.31724 15.3738 5.2992 15.4277 5.29193C15.4816 5.28465 15.5364 5.28827 15.5889 5.30259C15.6415 5.31691 15.6907 5.34163 15.7338 5.37536C15.777 5.40909 15.8132 5.45115 15.8403 5.49913L16.7475 7.09971C16.7749 7.14767 16.7926 7.20067 16.7998 7.25566C16.8069 7.31065 16.8033 7.36654 16.7891 7.4201C16.7753 7.47367 16.7511 7.52389 16.718 7.56781C16.6849 7.61173 16.6435 7.64847 16.5962 7.67587C16.1982 7.91081 15.8677 8.24806 15.6378 8.6539C15.4079 9.05975 15.2866 9.51997 15.286 9.98856V10.0108C15.2862 10.4797 15.4073 10.9404 15.6372 11.3466C15.8672 11.7529 16.1979 12.0904 16.5962 12.3255C16.6433 12.3532 16.6846 12.3901 16.7178 12.4342C16.7509 12.4782 16.7751 12.5284 16.7892 12.582C16.8032 12.6355 16.8068 12.6914 16.7996 12.7464C16.7925 12.8013 16.7748 12.8543 16.7475 12.9023H16.7442Z" fill="#D79900"/>
<path d="M10.0002 6.63462C9.3468 6.63462 8.70808 6.83199 8.1648 7.20179C7.62152 7.57158 7.19809 8.09718 6.94804 8.71212C6.698 9.32707 6.63258 10.0037 6.76005 10.6566C6.88752 11.3094 7.20216 11.909 7.66418 12.3797C8.1262 12.8503 8.71485 13.1709 9.35569 13.3007C9.99653 13.4306 10.6608 13.3639 11.2644 13.1092C11.8681 12.8545 12.384 12.4231 12.7471 11.8697C13.1101 11.3163 13.3038 10.6656 13.3038 10C13.3028 9.10777 12.9544 8.25239 12.335 7.62149C11.7157 6.99059 10.876 6.63568 10.0002 6.63462ZM10.0002 12.0192C9.60815 12.0192 9.22492 11.9008 8.89895 11.6789C8.57299 11.4571 8.31893 11.1417 8.1689 10.7727C8.01888 10.4038 7.97962 9.99776 8.0561 9.60607C8.13259 9.21438 8.32137 8.85458 8.59858 8.57219C8.87579 8.28979 9.22898 8.09748 9.61349 8.01957C9.99799 7.94166 10.3965 7.98164 10.7587 8.13447C11.1209 8.2873 11.4305 8.54611 11.6483 8.87818C11.8661 9.21024 11.9824 9.60063 11.9824 10C11.9824 10.5355 11.7735 11.0491 11.4018 11.4278C11.0301 11.8065 10.5259 12.0192 10.0002 12.0192Z" fill="#D79900"/>
</svg>