<svg width="32" height="32" viewBox="0 0 32 32" fill="none" xmlns="http://www.w3.org/2000/svg">
<path d="M28.905 19.5732C28.8122 19.2129 28.6498 18.875 28.4275 18.5791C28.2052 18.2833 27.9273 18.0355 27.61 17.8502C27.2951 17.6637 27.0336 17.3965 26.8514 17.0751C26.6693 16.7537 26.5729 16.3894 26.5719 16.0183V15.9806C26.5729 15.6095 26.6694 15.2452 26.8517 14.924C27.0341 14.6028 27.2959 14.3358 27.6111 14.1498C28.2483 13.774 28.7132 13.156 28.9038 12.4315C29.0945 11.7069 28.9953 10.9349 28.6281 10.2848L27.1766 7.71954C26.8078 7.06986 26.2009 6.59591 25.4893 6.40185C24.7776 6.20779 24.0195 6.30949 23.3814 6.68462L23.2841 6.73846C22.9966 6.90933 22.6698 6.99937 22.3369 6.99937C22.0041 6.99937 21.6772 6.90933 21.3897 6.73846L21.1783 6.61246C20.8893 6.44515 20.6491 6.20263 20.4823 5.90972C20.3155 5.61681 20.228 5.28401 20.2289 4.94538V4.82908C20.2278 4.07911 19.9349 3.36018 19.4143 2.82988C18.8937 2.29957 18.188 2.00114 17.4518 2H14.5488C13.8126 2.00114 13.1069 2.29957 12.5863 2.82988C12.0657 3.36018 11.7728 4.07911 11.7717 4.82908V4.94538C11.7738 5.28461 11.6873 5.6183 11.521 5.91221C11.3548 6.20613 11.1147 6.44967 10.8255 6.61785L10.6088 6.73846C10.3214 6.90955 9.99447 6.99971 9.66158 6.99971C9.32869 6.99971 9.00179 6.90955 8.71437 6.73846L8.61499 6.67923C7.97676 6.30512 7.21895 6.20409 6.50771 6.3983C5.79646 6.5925 5.18984 7.06609 4.82085 7.71523L3.37254 10.2805C3.0053 10.9306 2.90612 11.7026 3.09677 12.4271C3.28741 13.1517 3.75231 13.7696 4.38953 14.1455C4.70625 14.3359 4.96875 14.6071 5.15111 14.9325C5.33347 15.2578 5.42939 15.6259 5.42939 16.0005C5.42939 16.3752 5.33347 16.7433 5.15111 17.0686C4.96875 17.3939 4.70625 17.6652 4.38953 17.8555C4.07348 18.0412 3.79645 18.2884 3.57426 18.5832C3.35208 18.8779 3.18911 19.2144 3.09466 19.5734C3.00021 19.9323 2.97613 20.3067 3.02381 20.6752C3.0715 21.0436 3.19 21.3989 3.37254 21.7206L4.76799 24.1846C5.15219 24.86 5.78358 25.3526 6.52374 25.5544C7.2639 25.7563 8.05243 25.651 8.71648 25.2615C9.00501 25.0892 9.33344 24.9983 9.66792 24.9983C10.0024 24.9983 10.3308 25.0892 10.6194 25.2615L10.8308 25.3811C11.1193 25.5502 11.3584 25.7944 11.5237 26.0887C11.6891 26.3829 11.7746 26.7167 11.7717 27.0557C11.7728 27.8364 12.0778 28.5848 12.6198 29.1368C13.1618 29.6887 13.8966 29.9991 14.663 30H17.3376C18.104 29.9991 18.8388 29.6887 19.3808 29.1368C19.9228 28.5848 20.2278 27.8364 20.2289 27.0557C20.2267 26.7163 20.3132 26.3824 20.4794 26.0883C20.6457 25.7942 20.8858 25.5505 21.1751 25.3822L21.3865 25.2572C21.6741 25.0862 22.0012 24.996 22.3343 24.996C22.6673 24.996 22.9944 25.0862 23.282 25.2572C23.9459 25.6466 24.7343 25.7519 25.4743 25.55C26.2143 25.3482 26.8455 24.8556 27.2294 24.1803L28.6238 21.7206C28.8079 21.3995 28.9275 21.0443 28.9758 20.6756C29.0241 20.307 29 19.9323 28.905 19.5732ZM26.7907 20.6437L25.4016 23.1077C25.2982 23.2879 25.1292 23.4193 24.9313 23.4734C24.7333 23.5274 24.5225 23.4997 24.3445 23.3963C23.7338 23.0362 23.0406 22.8471 22.335 22.8483C21.6294 22.8494 20.9368 23.0407 20.3273 23.4028L20.1486 23.5105C19.5313 23.8644 19.0175 24.3793 18.6601 25.0023C18.3026 25.6254 18.1144 26.3341 18.1146 27.0557C18.1143 27.2654 18.0324 27.4665 17.8867 27.6147C17.741 27.7629 17.5435 27.8462 17.3376 27.8462H14.663C14.4571 27.8462 14.2596 27.7629 14.1139 27.6147C13.9683 27.4665 13.8863 27.2654 13.886 27.0557C13.8885 26.3333 13.7021 25.6234 13.3459 24.9988C12.9897 24.3742 12.4766 23.8575 11.8594 23.5018L11.6892 23.4017C11.0782 23.0334 10.3811 22.8396 9.6711 22.8406C8.9659 22.8414 8.27327 23.0308 7.66249 23.3898C7.48448 23.4932 7.27361 23.5209 7.07568 23.4669C6.87775 23.4129 6.70873 23.2815 6.60534 23.1012L5.2046 20.6437C5.16088 20.5669 5.13248 20.482 5.12104 20.394C5.10959 20.306 5.11534 20.2165 5.13793 20.1308C5.16052 20.045 5.19952 19.9646 5.25269 19.8943C5.30586 19.8239 5.37214 19.765 5.44775 19.7208C6.08608 19.3414 6.61567 18.7982 6.98374 18.1454C7.3518 17.4925 7.54549 16.7528 7.54549 16C7.54549 15.2472 7.3518 14.5075 6.98374 13.8546C6.61567 13.2018 6.08608 12.6586 5.44775 12.2792C5.37214 12.2354 5.30588 12.1766 5.25288 12.1063C5.19987 12.0361 5.16117 11.9557 5.13906 11.87C5.11638 11.7843 5.11059 11.6949 5.12202 11.6069C5.13345 11.5189 5.16188 11.4341 5.20566 11.3574L6.65608 8.79646C6.69946 8.71973 6.75725 8.65246 6.82615 8.59848C6.89505 8.54451 6.97371 8.50489 7.05765 8.48189C7.14158 8.45889 7.22914 8.45295 7.31533 8.46443C7.40152 8.47591 7.48464 8.50456 7.55995 8.54877L7.65932 8.60692C8.27212 8.96846 8.96808 9.15794 9.67622 9.15605C10.3844 9.15416 11.0793 8.96096 11.6903 8.59615L11.8594 8.496C12.4763 8.14082 12.9892 7.62468 13.3454 7.00065C13.7015 6.37663 13.8881 5.66723 13.886 4.94538V4.82908C13.886 4.64999 13.9558 4.47825 14.0801 4.35162C14.2044 4.22499 14.373 4.15385 14.5488 4.15385H17.4518C17.5388 4.15385 17.625 4.17131 17.7054 4.20525C17.7859 4.23918 17.8589 4.28892 17.9205 4.35162C17.982 4.41432 18.0309 4.48875 18.0642 4.57068C18.0975 4.6526 18.1146 4.7404 18.1146 4.82908V4.94538C18.1122 5.66771 18.2987 6.37765 18.6549 7.00223C19.011 7.62682 19.5241 8.14352 20.1412 8.49923L20.3114 8.59831C20.9223 8.96316 21.6174 9.1563 22.3256 9.158C23.0338 9.15971 23.7297 8.96991 24.3423 8.608L24.4396 8.552C24.5149 8.50758 24.5981 8.47873 24.6843 8.46708C24.7706 8.45544 24.8582 8.46124 24.9423 8.48414C25.0263 8.50705 25.1051 8.54661 25.1741 8.60057C25.2432 8.65454 25.3011 8.72183 25.3445 8.79862L26.796 11.3595C26.8398 11.4363 26.8682 11.5211 26.8797 11.6091C26.8911 11.697 26.8853 11.7865 26.8626 11.8722C26.8405 11.9579 26.8018 12.0382 26.7488 12.1085C26.6958 12.1788 26.6295 12.2375 26.5539 12.2814C25.9171 12.6573 25.3884 13.1969 25.0205 13.8462C24.6526 14.4956 24.4585 15.232 24.4576 15.9817V16.0172C24.4578 16.7675 24.6516 17.5046 25.0196 18.1546C25.3875 18.8046 25.9166 19.3447 26.5539 19.7208C26.6293 19.7652 26.6954 19.8242 26.7484 19.8946C26.8014 19.9651 26.8402 20.0454 26.8627 20.1311C26.8852 20.2168 26.8909 20.3062 26.8794 20.3942C26.868 20.4821 26.8396 20.5669 26.796 20.6437H26.7907Z" fill="black"/>
<path d="M16.0003 10.6154C14.9549 10.6154 13.9329 10.9312 13.0637 11.5229C12.1944 12.1145 11.5169 12.9555 11.1169 13.9394C10.7168 14.9233 10.6121 16.006 10.8161 17.0505C11.02 18.095 11.5235 19.0544 12.2627 19.8075C13.0019 20.5606 13.9438 21.0734 14.9691 21.2812C15.9944 21.4889 17.0572 21.3823 18.0231 20.9747C18.9889 20.5672 19.8145 19.877 20.3953 18.9915C20.9761 18.106 21.2861 17.065 21.2861 16C21.2844 14.5724 20.727 13.2038 19.7361 12.1944C18.7452 11.1849 17.4017 10.6171 16.0003 10.6154ZM16.0003 19.2308C15.373 19.2308 14.7599 19.0413 14.2383 18.6863C13.7168 18.3313 13.3103 17.8267 13.0702 17.2364C12.8302 16.646 12.7674 15.9964 12.8898 15.3697C13.0121 14.743 13.3142 14.1673 13.7577 13.7155C14.2013 13.2637 14.7664 12.956 15.3816 12.8313C15.9968 12.7066 16.6345 12.7706 17.214 13.0152C17.7935 13.2597 18.2888 13.6738 18.6373 14.2051C18.9858 14.7364 19.1718 15.361 19.1718 16C19.1718 16.8569 18.8376 17.6786 18.2429 18.2845C17.6481 18.8904 16.8414 19.2308 16.0003 19.2308Z" fill="black"/>
</svg>
