<svg xmlns="http://www.w3.org/2000/svg" width="20" height="20" viewBox="0 0 20 20" fill="none">
  <path fill-rule="evenodd" clip-rule="evenodd" d="M9.38154 2.2V3.4228C5.25477 3.7312 2 7.0978 2 11.2C2 15.505 5.58462 19 10 19C14.4154 19 18 15.505 18 11.2C18 7.096 14.7422 3.7282 10.6123 3.4228V2.2H11.8431C12.1828 2.2 12.4585 1.9312 12.4585 1.6C12.4585 1.2688 12.1828 1 11.8431 1H8.15077C7.81107 1 7.53538 1.2688 7.53538 1.6C7.53538 1.9312 7.81107 2.2 8.15077 2.2H9.38154ZM9.38462 7.5994L9.38154 11.1994C9.38154 11.359 9.44615 11.5114 9.56184 11.6242L11.408 13.4242C11.648 13.6582 12.0382 13.6582 12.2782 13.4242C12.5182 13.1902 12.5182 12.8098 12.2782 12.5758L10.6123 10.9516L10.6154 7.6006C10.616 7.2694 10.3403 7 10.0006 7C9.66093 7 9.38523 7.2682 9.38462 7.5994Z" fill="#181818"/>
</svg>