<svg width="62" height="62" viewBox="0 0 62 62" fill="none" xmlns="http://www.w3.org/2000/svg">
<rect x="3" y="3" width="56" height="56" rx="28" fill="#4CAF50"/>
<rect x="3" y="3" width="56" height="56" rx="28" stroke="#E5F6E5" stroke-width="6"/>
<path d="M31 19C24.3835 19 19 24.3835 19 31C19 37.6165 24.3835 43 31 43C37.6165 43 43 37.6165 43 31C43 24.3835 37.6165 19 31 19ZM37.7068 27.8421L30.0376 35.4511C29.5865 35.9023 28.8647 35.9323 28.3835 35.4812L24.3233 31.782C23.8421 31.3308 23.812 30.5789 24.2331 30.0977C24.6842 29.6165 25.4361 29.5865 25.9173 30.0376L29.1353 32.985L35.9925 26.1278C36.4737 25.6466 37.2256 25.6466 37.7068 26.1278C38.188 26.609 38.188 27.3609 37.7068 27.8421Z" fill="white"/>
</svg>
