<svg width="78" height="78" viewBox="0 0 78 78" fill="none" xmlns="http://www.w3.org/2000/svg">
<rect x="3" y="3" width="72" height="72" rx="36" fill="#E52A34"/>
<rect x="3" y="3" width="72" height="72" rx="36" stroke="#F7CDCF" stroke-width="6"/>
<path d="M27.5471 32.5898V44.2138C27.7181 46.4359 27.889 49.3419 28.06 51.3933C28.2309 53.7864 30.2822 55.6668 32.6753 55.6668H45.3248C47.718 55.6668 49.7693 53.7864 49.9403 51.3933C50.1112 49.3419 50.2822 46.4359 50.4532 44.2138C50.624 41.6496 50.4532 36.3504 50.4532 32.5898H27.5471Z" fill="white"/>
<path d="M50.9659 27.4616H46.6924L45.3249 24.8975C44.4702 23.359 42.9317 22.3334 41.2222 22.3334H37.1197C35.4103 22.3334 33.7009 23.359 33.0172 24.8975L31.3078 27.4616H27.0343C26.3505 27.4616 25.6667 28.1453 25.6667 28.8291C25.6667 29.5129 26.3505 30.1966 27.0343 30.1966H50.9659C51.6496 30.1966 52.3334 29.6838 52.3334 28.8291C52.3334 27.9744 51.6496 27.4616 50.9659 27.4616ZM34.2138 27.4616L35.0685 26.0941C35.4103 25.4103 36.0941 24.8975 36.9487 24.8975H41.0514C41.9061 24.8975 42.5897 25.2394 42.9317 26.0941L43.7864 27.4616H34.2138Z" fill="white"/>
</svg>
