<svg width="30" height="30" viewBox="0 0 30 30" fill="none" xmlns="http://www.w3.org/2000/svg">
<g filter="url(#filter0_dd_1155_12047)">
<rect x="3" y="2" width="24" height="24" rx="4" fill="#E52A34" shape-rendering="crispEdges"/>
<path d="M10.4189 11.4359V16.0854C10.4873 16.9743 10.5557 18.1367 10.6241 18.9572C10.6925 19.9145 11.513 20.6666 12.4702 20.6666H17.53C18.4873 20.6666 19.3078 19.9145 19.3762 18.9572C19.4446 18.1367 19.513 16.9743 19.5814 16.0854C19.6497 15.0598 19.5814 12.9401 19.5814 11.4359H10.4189Z" fill="white"/>
<path d="M19.7864 9.38459H18.077L17.53 8.35895C17.1881 7.74357 16.5727 7.33331 15.8889 7.33331H14.2479C13.5642 7.33331 12.8804 7.74357 12.6069 8.35895L11.9232 9.38459H10.2138C9.94025 9.38459 9.66675 9.6581 9.66675 9.93161C9.66675 10.2051 9.94025 10.4786 10.2138 10.4786H19.7864C20.0599 10.4786 20.3334 10.2735 20.3334 9.93161C20.3334 9.58973 20.0599 9.38459 19.7864 9.38459ZM13.0856 9.38459L13.4274 8.83759C13.5642 8.56408 13.8377 8.35895 14.1795 8.35895H15.8206C16.1625 8.35895 16.4359 8.49571 16.5727 8.83759L16.9146 9.38459H13.0856Z" fill="white"/>
</g>
<defs>
<filter id="filter0_dd_1155_12047" x="0" y="0" width="30" height="30" filterUnits="userSpaceOnUse" color-interpolation-filters="sRGB">
<feFlood flood-opacity="0" result="BackgroundImageFix"/>
<feColorMatrix in="SourceAlpha" type="matrix" values="0 0 0 0 0 0 0 0 0 0 0 0 0 0 0 0 0 0 127 0" result="hardAlpha"/>
<feOffset dy="1"/>
<feGaussianBlur stdDeviation="1"/>
<feComposite in2="hardAlpha" operator="out"/>
<feColorMatrix type="matrix" values="0 0 0 0 0.0627451 0 0 0 0 0.0941176 0 0 0 0 0.156863 0 0 0 0.06 0"/>
<feBlend mode="normal" in2="BackgroundImageFix" result="effect1_dropShadow_1155_12047"/>
<feColorMatrix in="SourceAlpha" type="matrix" values="0 0 0 0 0 0 0 0 0 0 0 0 0 0 0 0 0 0 127 0" result="hardAlpha"/>
<feOffset dy="1"/>
<feGaussianBlur stdDeviation="1.5"/>
<feComposite in2="hardAlpha" operator="out"/>
<feColorMatrix type="matrix" values="0 0 0 0 0.0627451 0 0 0 0 0.0941176 0 0 0 0 0.156863 0 0 0 0.1 0"/>
<feBlend mode="normal" in2="effect1_dropShadow_1155_12047" result="effect2_dropShadow_1155_12047"/>
<feBlend mode="normal" in="SourceGraphic" in2="effect2_dropShadow_1155_12047" result="shape"/>
</filter>
</defs>
</svg>
