<svg xmlns="http://www.w3.org/2000/svg" width="12" height="12" viewBox="0 0 12 12" fill="none">
<g clip-path="url(#clip0_1225_2403)">
<rect x="5.14285" y="2.57141" width="2.57143" height="7.71429" fill="white"/>
<path d="M11.7507 8.9988L7.51165 1.2064C6.83058 0.0598111 5.17033 0.0582877 4.48835 1.2064L0.249536 8.9988C-0.446698 10.1704 0.396232 11.6541 1.76083 11.6541H10.239C11.6025 11.6541 12.4469 10.1716 11.7507 8.9988ZM6 10.2478C5.61239 10.2478 5.29687 9.93229 5.29687 9.54469C5.29687 9.15708 5.61239 8.84156 6 8.84156C6.38761 8.84156 6.70312 9.15708 6.70312 9.54469C6.70312 9.93229 6.38761 10.2478 6 10.2478ZM6.70312 7.43531C6.70312 7.82292 6.38761 8.13844 6 8.13844C5.61239 8.13844 5.29687 7.82292 5.29687 7.43531V3.91969C5.29687 3.53208 5.61239 3.21656 6 3.21656C6.38761 3.21656 6.70312 3.53208 6.70312 3.91969V7.43531Z" fill="#F26D0F"/>
</g>
<defs>
<clipPath id="clip0_1225_2403">
<rect width="12" height="12" fill="white"/>
</clipPath>
</defs>
</svg>