<svg xmlns="http://www.w3.org/2000/svg" width="15" height="15" viewBox="0 0 15 15" fill="none">
<path d="M13.1324 14.125H1.86743C1.11218 14.125 0.50543 13.8266 0.20243 13.3064C-0.10057 12.7854 -0.0638202 12.1053 0.30443 11.4422L5.98718 1.17795C6.35768 0.508158 6.90818 0.125 7.49618 0.125C8.08493 0.125 8.63468 0.508158 9.00518 1.17647L14.6947 11.4429C15.0622 12.1068 15.0997 12.7862 14.7967 13.3071C14.4937 13.8273 13.8877 14.125 13.1324 14.125ZM7.49618 1.20226C7.30868 1.20226 7.09493 1.38942 6.92093 1.70258L1.23893 11.9661C1.06043 12.2888 1.01918 12.5776 1.12568 12.7604C1.23218 12.9431 1.50293 13.0477 1.86818 13.0477H13.1324C13.4984 13.0477 13.7699 12.9431 13.8757 12.7604C13.9814 12.5784 13.9402 12.2888 13.7617 11.9675L8.07218 1.70184C7.89968 1.38868 7.68368 1.20153 7.49693 1.20153M7.49993 9.26479C7.35644 9.26285 7.21961 9.20503 7.11948 9.10404C7.01935 9.00304 6.96413 8.86713 6.96593 8.72616V3.87774C6.96593 3.58005 7.20518 3.33837 7.49993 3.33837C7.79543 3.33837 8.03468 3.58005 8.03468 3.877V8.72542C8.03468 9.02384 7.79468 9.26479 7.49993 9.26479ZM7.49618 11.8983C7.95668 11.8983 8.32868 11.5217 8.32868 11.0568C8.32868 10.5926 7.95668 10.2168 7.49618 10.2168C7.03643 10.2168 6.66368 10.5926 6.66368 11.0568C6.66368 11.521 7.03643 11.8983 7.49618 11.8983Z" fill="#D75E09"/>
</svg>